<?xml version="1.0" encoding="utf-8"?>
<!-- Generator: Adobe Illustrator 22.0.1, SVG Export Plug-In . SVG Version: 6.00 Build 0)  -->
<svg version="1.1" id="Layer_1" xmlns="http://www.w3.org/2000/svg" xmlns:xlink="http://www.w3.org/1999/xlink" x="0px" y="0px"
	 width="200px" height="100px" viewBox="0 0 200 100" style="enable-background:new 0 0 200 100;" xml:space="preserve">
<style type="text/css">
	.st0{fill-rule:evenodd;clip-rule:evenodd;fill:#FFFFFF;}
	.st1{fill:#FFFFFF;}
</style>
<g>
	<path class="st0" d="M74.7,34.2c5.9,0,11.2,2.8,14.6,7l9.4-6.6c-0.1-0.1-0.1-0.1-0.1-0.2C85.6,15,52.1,20.7,50.5,49.1
		c0.2,16.5,16.3,31.7,35.5,25c0.1,0,0.3-0.1,0.4-0.1l-3.2-6c-2.5,1.3-5.4,2-8.5,2c-10.1,0-18.3-8-18.3-17.9
		C56.4,42.2,64.6,34.2,74.7,34.2"/>
	<path class="st0" d="M51.1,38.2c0.3,0.5-14.5,5.7-19.8,15.5c-3,5.5-2.7,9.1,3.3,11.8c7.3,3.2,19,1.5,31.5-1.2
		c-7.3,0.5-15.1,1.8-20.3-0.4C39.2,61,39.7,53.5,42.5,48C44.4,44.4,47.5,41.2,51.1,38.2"/>
	<path class="st0" d="M93.8,25.9c15.1,5.9,11.8,18.8-7.3,30.2c8.3-5,17.4-8.8,22.2-18.9C111.2,29,103.6,26.8,93.8,25.9"/>
	<path class="st0" d="M131.3,69.1c-2.4,4.2-6.3,7.8-8.3,6.8c-4.8-2.3-1.5-13.2-0.9-15.4c4.1-9.9,7.9-12.8,10.3-12.5
		c3.2,0.3,3.7,5.3,2.9,9.3h-2c0.2-3.5-0.6-5.1-1.6-5.4c-2.3-0.6-6.4,4-8.1,9.3c-2.3,7.1-0.7,15.8,5.7,7.3L131.3,69.1z"/>
	<path class="st0" d="M94.7,60.2l0,0.8h-1.8v-0.2c0-0.5-0.2-1-0.5-1.2c-0.3-0.3-0.7-0.4-1.2-0.4h-0.2c-0.4,0-0.8,0.2-1.2,0.5
		c-0.7,0.6-1.3,1.5-1.6,2.9c-0.1,0.6-0.2,1.1-0.2,1.5c0,0,0,0.2,0.1,0.7c0.1,0.7,0.4,1.1,0.9,1.4c0.2,0.1,0.5,0.2,0.7,0.2
		c0.3,0,0.6,0,0.8-0.1c0.6-0.2,1.1-0.5,1.4-0.9c0.1-0.1,0.2-0.4,0.4-1h1.8c-0.1,0.5-0.3,1-0.7,1.6c-0.3,0.5-0.7,0.9-1.1,1.2
		c-0.9,0.7-1.9,1-3,1h-0.1c-1,0-1.8-0.3-2.4-1c-0.5-0.6-0.8-1.6-0.8-3.1c0-0.1,0-0.3,0-0.4c0.1-0.8,0.2-1.4,0.3-1.7
		c0.1-0.4,0.3-0.8,0.4-1.2c1.1-2.3,2.7-3.4,4.7-3.4C93.5,57.4,94.6,58.4,94.7,60.2 M104.6,61.3c0,0.4,0,0.9-0.1,1.4
		c-0.3,1.7-1,3-2.2,4.1c-0.9,0.9-2.1,1.3-3.4,1.3c-1.3,0-2.3-0.4-2.9-1.3c-0.5-0.7-0.7-1.6-0.7-2.8c0-0.4,0-0.9,0.1-1.3
		c0.3-1.7,1-3,2.2-4.1c0.9-0.9,2-1.3,3.4-1.3c1.3,0,2.3,0.4,2.8,1.3C104.4,59.3,104.6,60.2,104.6,61.3 M102.7,61.6
		c0-0.8-0.2-1.4-0.5-1.8c-0.4-0.5-0.9-0.7-1.6-0.7c-0.7,0-1.3,0.2-1.9,0.7c-0.4,0.3-0.7,0.7-1,1.3c-0.3,0.5-0.4,1-0.5,1.6
		c0,0,0,0.2-0.1,0.4c0,0.3-0.1,0.5-0.1,0.7c0,1.2,0.4,2,1.2,2.3c0.3,0.1,0.6,0.2,0.9,0.2c0.7,0,1.3-0.2,1.8-0.7
		c0.8-0.7,1.3-1.6,1.5-2.8C102.7,62.3,102.7,61.9,102.7,61.6 M113.7,57.4l-0.4,1.8h-2.7l-1.6,8.5h-1.9l1.6-8.5h-2.9l0.4-1.8H113.7z
		 M121.7,57.4H115l-2,10.2h7l0.4-1.8h-5.1l0.5-2.6l0.3-1.7l0.5-2.3h4.8L121.7,57.4z M117.2,61.5h3.4l-0.3,1.7h-3.3L117.2,61.5z
		 M134.4,60.2l0,0.8h-1.8v-0.2c0-0.5-0.2-1-0.5-1.2c-0.3-0.3-0.7-0.4-1.2-0.4h-0.2c-0.4,0-0.8,0.2-1.2,0.5c-0.8,0.6-1.3,1.5-1.6,2.9
		c-0.1,0.6-0.2,1.1-0.2,1.5c0,0,0,0.2,0.1,0.7c0.1,0.7,0.4,1.1,0.9,1.4c0.2,0.1,0.5,0.2,0.8,0.2c0.3,0,0.6,0,0.8-0.1
		c0.6-0.2,1.1-0.5,1.4-0.9c0.1-0.1,0.2-0.4,0.5-1h1.8c-0.1,0.5-0.3,1-0.7,1.6c-0.3,0.5-0.7,0.9-1.1,1.2c-0.9,0.7-1.9,1-2.9,1h-0.1
		c-1,0-1.8-0.3-2.4-1c-0.5-0.6-0.8-1.6-0.8-3.1c0-0.1,0-0.3,0-0.4c0.1-0.8,0.2-1.4,0.3-1.7c0.1-0.4,0.3-0.8,0.4-1.2
		c1.1-2.3,2.6-3.4,4.7-3.4C133.1,57.4,134.2,58.4,134.4,60.2 M144.2,61.3c0,0.4,0,0.9-0.1,1.4c-0.3,1.7-1,3-2.2,4.1
		c-0.9,0.9-2,1.3-3.4,1.3c-1.3,0-2.3-0.4-2.9-1.3c-0.5-0.7-0.7-1.6-0.7-2.8c0-0.4,0-0.9,0.1-1.3c0.3-1.7,1-3,2.2-4.1
		c0.9-0.9,2.1-1.3,3.4-1.3c1.3,0,2.3,0.4,2.8,1.3C144,59.3,144.2,60.2,144.2,61.3 M142.3,61.6c0-0.8-0.2-1.4-0.5-1.8
		c-0.4-0.5-0.9-0.7-1.6-0.7c-0.7,0-1.3,0.2-1.9,0.7c-0.4,0.3-0.7,0.7-1,1.3c-0.2,0.5-0.4,1-0.5,1.6c0,0,0,0.2-0.1,0.4
		c0,0.3-0.1,0.5-0.1,0.7c0,1.2,0.4,2,1.2,2.3c0.3,0.1,0.6,0.2,0.9,0.2c0.7,0,1.3-0.2,1.8-0.7c0.8-0.7,1.3-1.6,1.5-2.8
		C142.3,62.3,142.3,61.9,142.3,61.6 M154.1,57.4l-2,10.2h-1.9l-2.4-7.1l-1.4,7.1h-1.9l2-10.2h1.9l2.4,7l1.4-7H154.1z M162.3,59.8
		c0-0.5-0.1-0.9-0.2-1.2c-0.5-0.9-1.4-1.3-2.9-1.3c-1,0-1.8,0.2-2.5,0.7c-0.8,0.5-1.3,1.2-1.6,2.2c-0.1,0.4-0.2,0.8-0.2,1
		c0,0.9,0.4,1.5,1.3,1.8c0.2,0.1,0.8,0.2,2,0.5c0.8,0.2,1.3,0.4,1.5,0.7c0.1,0.1,0.1,0.3,0.1,0.6c0,0.4-0.2,0.8-0.5,1.1
		c-0.4,0.3-0.9,0.5-1.6,0.5l-0.2,0c-0.3,0-0.6-0.1-0.9-0.2c-0.6-0.2-0.9-0.6-0.9-1.2l0.1-0.3H154l-0.1,0.5c0,0.9,0.3,1.6,0.8,2.1
		c0.5,0.5,1.2,0.7,2.2,0.7c0.6,0,1.1-0.1,1.7-0.2c0.5-0.1,1-0.3,1.4-0.5c0.5-0.3,0.9-0.8,1.2-1.4c0.4-0.7,0.5-1.3,0.5-1.9
		c0-0.2,0-0.4-0.1-0.6c-0.1-0.6-0.5-1-1.2-1.2c-1-0.3-1.7-0.5-2.2-0.6c-0.6-0.1-1-0.3-1-0.4c-0.3-0.1-0.5-0.3-0.5-0.6l0.1-0.5
		c0.1-0.4,0.3-0.7,0.7-0.9c0.3-0.2,0.7-0.3,1.1-0.3h0.1c0.4,0,0.8,0.1,1.1,0.3c0.4,0.2,0.5,0.6,0.5,1l0,0.3h1.8
		C162.3,60.4,162.3,60.2,162.3,59.8"/>
	<path class="st0" d="M163.8,53.3c1.2,0,2.2,1,2.2,2.2c0,1.2-1,2.2-2.2,2.2c-1.2,0-2.2-1-2.2-2.2C161.6,54.3,162.6,53.3,163.8,53.3
		 M163.8,53.6c-1,0-1.9,0.8-1.9,1.9c0,1,0.9,1.9,1.9,1.9c1,0,1.9-0.9,1.9-1.9C165.7,54.5,164.9,53.6,163.8,53.6"/>
	<path class="st1" d="M163.1,56.7v-2h0.9c0.2,0,0.3,0,0.4,0.1c0.1,0,0.2,0.1,0.2,0.2c0.1,0.1,0.1,0.2,0.1,0.3c0,0.1-0.1,0.3-0.1,0.4
		c-0.1,0.1-0.2,0.2-0.4,0.2c0.1,0,0.1,0.1,0.2,0.1c0.1,0.1,0.1,0.2,0.2,0.3l0.4,0.6h-0.3l-0.3-0.4c-0.1-0.1-0.1-0.2-0.2-0.3
		c-0.1-0.1-0.1-0.1-0.1-0.1c0,0-0.1,0-0.1,0c0,0-0.1,0-0.1,0h-0.3v0.9H163.1z M163.4,55.6h0.6c0.1,0,0.2,0,0.3,0
		c0.1,0,0.1-0.1,0.2-0.1c0-0.1,0.1-0.1,0.1-0.2c0-0.1,0-0.2-0.1-0.2c-0.1-0.1-0.2-0.1-0.3-0.1h-0.6V55.6z"/>
	<path class="st1" d="M141,74.1l0.1-0.5h2l-0.5,2.4h-0.4l0-0.6c-0.2,0.2-0.4,0.4-0.7,0.5c-0.3,0.1-0.6,0.2-0.9,0.2
		c-0.4,0-0.6-0.1-0.9-0.2c-0.2-0.1-0.3-0.2-0.4-0.3c-0.2-0.3-0.4-0.6-0.4-1c0-0.2,0-0.5,0.1-0.9c0.1-0.6,0.4-1.1,0.8-1.6
		c0.5-0.5,1.1-0.8,1.8-0.8c0.5,0,0.8,0.1,1.1,0.4c0.3,0.3,0.5,0.6,0.4,1.1h-0.6c0-0.4-0.1-0.6-0.4-0.8c-0.2-0.1-0.4-0.2-0.7-0.2
		c-0.4,0-0.8,0.2-1.1,0.5c-0.4,0.3-0.6,0.8-0.7,1.4c-0.1,0.5-0.1,1,0,1.3c0.2,0.4,0.5,0.6,1.1,0.6c0.2,0,0.3,0,0.4,0
		c0.2,0,0.4-0.1,0.5-0.2c0.2-0.1,0.4-0.3,0.5-0.5c0.1-0.2,0.2-0.4,0.2-0.7H141z"/>
	<path class="st1" d="M144.9,74l-0.4,1.9h-0.6l0.9-4.5h2.1c0.4,0,0.7,0.1,1,0.2c0.3,0.2,0.3,0.5,0.3,1c-0.1,0.3-0.2,0.5-0.3,0.7
		c-0.1,0.1-0.3,0.2-0.5,0.3c0.2,0.1,0.3,0.2,0.3,0.2c0.1,0.1,0.1,0.3,0,0.6l-0.1,0.8c0,0.1,0,0.2,0,0.3c0,0.1,0.1,0.1,0.1,0.2l0,0.1
		h-0.7c0-0.1,0-0.3,0-0.5c0-0.2,0.1-0.4,0.1-0.6c0.1-0.3,0-0.5-0.1-0.6c-0.1-0.1-0.3-0.1-0.5-0.1H144.9z M145.3,72l-0.3,1.5h1.4
		c0.3,0,0.5-0.1,0.6-0.1c0.2-0.1,0.4-0.3,0.4-0.6c0.1-0.3,0-0.5-0.1-0.6c-0.1-0.1-0.3-0.1-0.5-0.1H145.3z"/>
	<path class="st1" d="M153.2,73.7c-0.1,0.6-0.4,1.1-0.8,1.5c-0.5,0.6-1.1,0.8-1.9,0.8c-0.8,0-1.3-0.3-1.5-0.8
		c-0.2-0.4-0.3-1-0.1-1.6c0.1-0.6,0.4-1.1,0.8-1.5c0.5-0.5,1.1-0.8,1.9-0.8c0.7,0,1.3,0.3,1.5,0.8C153.3,72.6,153.4,73.1,153.2,73.7
		 M152.6,73.7c0.1-0.5,0.1-1-0.1-1.3c-0.2-0.4-0.6-0.5-1-0.5c-0.5,0-0.9,0.2-1.2,0.5c-0.4,0.3-0.6,0.8-0.7,1.3
		c-0.1,0.5-0.1,1,0.1,1.3c0.2,0.3,0.5,0.5,1,0.5c0.5,0,0.9-0.2,1.2-0.5C152.3,74.7,152.5,74.2,152.6,73.7"/>
	<path class="st1" d="M157.2,71.5h0.6l-0.6,2.9c-0.1,0.5-0.3,0.9-0.7,1.2c-0.4,0.3-0.9,0.5-1.5,0.5c-0.6,0-1-0.2-1.2-0.5
		c-0.2-0.3-0.3-0.7-0.2-1.1l0.6-3h0.6l-0.6,2.8c-0.1,0.4,0,0.8,0.1,1c0.2,0.2,0.4,0.3,0.7,0.3c0.3,0,0.6-0.1,0.9-0.2
		c0.3-0.2,0.5-0.5,0.6-1L157.2,71.5z"/>
	<path class="st1" d="M158.9,74l-0.4,1.9h-0.6l1-4.5h2c0.4,0,0.7,0.1,0.9,0.4c0.2,0.2,0.3,0.5,0.2,0.9c-0.1,0.4-0.2,0.7-0.5,0.9
		c-0.3,0.3-0.7,0.4-1.1,0.4H158.9z M159.4,72l-0.3,1.6h1.2c0.3,0,0.5-0.1,0.7-0.2c0.2-0.1,0.3-0.3,0.4-0.6c0.1-0.3,0-0.5-0.1-0.6
		c-0.1-0.1-0.3-0.2-0.6-0.2H159.4z"/>
</g>
</svg>
