<?xml version="1.0" encoding="utf-8"?>
<!-- Generator: Adobe Illustrator 21.0.0, SVG Export Plug-In . SVG Version: 6.00 Build 0)  -->
<svg version="1.1" id="Layer_1" xmlns="http://www.w3.org/2000/svg" xmlns:xlink="http://www.w3.org/1999/xlink" x="0px" y="0px"
	 viewBox="0 0 500 100" style="enable-background:new 0 0 500 100;" xml:space="preserve">
<style type="text/css">
	.st0{fill:#FFFFFF;}
	.st1{fill:#D2D1D3;}
</style>
<g>
	<path class="st0" d="M63.7,59.5h3.4V60h-0.3c-0.2,0-0.4,0-0.5,0.1c-0.1,0-0.2,0.1-0.2,0.2c0,0.1-0.1,0.2-0.1,0.5v6.1
		c0,0.3,0,0.4,0,0.5s0.1,0.1,0.2,0.2c0.1,0,0.2,0,0.5,0h0.5c0.5,0,1-0.1,1.4-0.2c0.4-0.2,0.7-0.4,1-0.7c0.3-0.3,0.6-0.7,0.8-1.3
		l0.6,0.2l-1,2.7h-6.3v-0.5H64c0.3,0,0.4,0,0.5-0.1c0.1,0,0.2-0.1,0.2-0.2s0.1-0.3,0.1-0.6V61c0-0.3,0-0.5-0.1-0.6
		c0-0.1-0.1-0.2-0.2-0.2s-0.3-0.1-0.6-0.1h-0.3L63.7,59.5L63.7,59.5z M84.9,59.5L84.9,59.5h1l2.7,7.3c0.1,0.4,0.3,0.6,0.4,0.7
		s0.3,0.2,0.5,0.2h0.1v0.5h-3.1v-0.5c0.1,0,0.2,0,0.3,0c0.2,0,0.3,0,0.4-0.1s0.2-0.2,0.2-0.3c0-0.1-0.1-0.3-0.2-0.6L86.8,65h-3.2
		l-0.7,1.9c-0.1,0.2-0.1,0.3-0.1,0.4s0,0.2,0.1,0.2c0,0.1,0.1,0.1,0.2,0.1s0.2,0,0.4,0c0.1,0,0.2,0,0.3,0v0.5h-2.6v-0.5
		c0.2,0,0.4,0,0.5-0.1c0.1,0,0.2-0.1,0.3-0.2c0.1-0.1,0.2-0.3,0.3-0.7L84.9,59.5L84.9,59.5z M83.8,64.4L83.8,64.4h2.7l-1.3-3.8
		L83.8,64.4L83.8,64.4z M100.6,59.5L100.6,59.5h2.7l4,6.6v-5c0-0.3,0-0.5-0.1-0.6s-0.1-0.2-0.3-0.3c-0.1-0.1-0.3-0.1-0.5-0.1h-0.2
		v-0.5h2.9V60H109c-0.3,0-0.4,0-0.5,0.1s-0.2,0.2-0.3,0.3c-0.1,0.2-0.1,0.4-0.1,0.7v7.2h-0.8l-4.8-7.9v6.3c0,0.3,0,0.6,0,0.6
		c0,0.1,0.1,0.2,0.2,0.3c0.1,0.1,0.2,0.1,0.3,0.2c0.1,0,0.3,0,0.6,0v0.5h-3v-0.5h0.2c0.3,0,0.5,0,0.6-0.1s0.2-0.2,0.2-0.3
		c0.1-0.1,0.1-0.4,0.1-0.7v-5.6c0-0.3,0-0.6,0-0.6c0-0.1-0.1-0.2-0.2-0.3s-0.3-0.1-0.6-0.1h-0.2L100.6,59.5L100.6,59.5z M120.5,60
		L120.5,60v-0.5h3.1c1.4,0,2.4,0.1,3,0.3c0.8,0.3,1.5,0.8,2,1.5c0.6,0.8,0.9,1.7,0.9,2.7c0,0.7-0.1,1.4-0.4,2
		c-0.3,0.6-0.7,1.1-1.1,1.5c-0.4,0.3-0.8,0.5-1.4,0.7c-0.5,0.1-1.1,0.2-1.6,0.2h-4.5v-0.5h0.4h0.1c0.2,0,0.3,0,0.4-0.1
		s0.2-0.1,0.2-0.2s0-0.3,0-0.6v-6c0-0.3,0-0.5-0.1-0.6s-0.2-0.2-0.3-0.3C121.2,60,120.9,60,120.5,60L120.5,60z M122.7,67.6
		L122.7,67.6h1.9c0.2,0,0.5,0,0.9-0.1s0.7-0.1,0.9-0.2c0.3-0.1,0.5-0.4,0.8-0.7c0.3-0.3,0.5-0.7,0.6-1.1s0.2-0.9,0.2-1.5
		s-0.1-1.1-0.2-1.5s-0.4-0.8-0.6-1.1c-0.3-0.3-0.6-0.6-0.9-0.8s-0.7-0.3-1.2-0.3c-0.2,0-0.6,0-1.2,0h-1.3L122.7,67.6L122.7,67.6z"/>
	<g>
		<rect x="13.6" y="64.2" class="st0" width="45.4" height="0.5"/>
		<rect x="134.1" y="64.2" class="st0" width="45.4" height="0.5"/>
	</g>
	<g>
		<path class="st0" d="M179.4,52c-1.1,0.8-2.3,1.4-3.6,1.8c-1.3,0.4-2.6,0.6-4,0.6c-1.8,0-3.5-0.3-4.9-0.9c-1.5-0.6-2.8-1.4-3.8-2.4
			c-1.1-1-1.9-2.2-2.4-3.6c-0.6-1.4-0.9-2.9-0.9-4.5s0.3-3.1,0.8-4.5s1.3-2.6,2.3-3.6s2.2-1.8,3.7-2.3c1.4-0.6,3-0.8,4.8-0.8
			c0.9,0,1.8,0.1,2.6,0.2c0.8,0.2,1.6,0.4,2.2,0.6c0.7,0.3,1.3,0.6,1.9,0.9c0.6,0.4,1.1,0.8,1.5,1.2l-1.5,2.3
			c-0.2,0.3-0.5,0.6-0.9,0.6c-0.4,0.1-0.8,0-1.2-0.3c-0.4-0.2-0.8-0.5-1.1-0.6c-0.4-0.2-0.7-0.3-1.1-0.4c-0.4-0.1-0.8-0.2-1.2-0.2
			s-0.9-0.1-1.4-0.1c-1,0-1.8,0.2-2.6,0.5s-1.4,0.8-2,1.4c-0.5,0.6-1,1.3-1.2,2.2c-0.3,0.9-0.4,1.8-0.4,2.9c0,1.2,0.2,2.2,0.5,3.1
			c0.3,0.9,0.8,1.7,1.4,2.3c0.6,0.6,1.3,1.1,2.1,1.4c0.8,0.3,1.7,0.5,2.7,0.5c0.6,0,1.2-0.1,1.7-0.2c0.5-0.1,1-0.3,1.5-0.5v-3.3
			h-2.2c-0.3,0-0.6-0.1-0.8-0.3s-0.3-0.4-0.3-0.6v-2.8h7.8L179.4,52L179.4,52z M139.7,32.1L139.7,32.1c0.2,0,0.4,0,0.6,0
			c0.1,0,0.3,0.1,0.4,0.1c0.1,0.1,0.2,0.1,0.3,0.2c0.1,0.1,0.2,0.2,0.4,0.4L151.8,46c0-0.4-0.1-0.8-0.1-1.2s0-0.8,0-1.1V32.1h4.5v22
			h-2.7c-0.4,0-0.7-0.1-1-0.2c-0.3-0.1-0.5-0.3-0.8-0.7l-10.4-13.1c0,0.4,0.1,0.8,0.1,1.1c0,0.4,0,0.7,0,1V54H137V32L139.7,32.1
			L139.7,32.1z M109.9,54.1L109.9,54.1h-5.1v-9.3h-8.9v9.3h-5.1v-22h5.1v9.2h8.9v-9.2h5.1V54.1L109.9,54.1z M132.3,33.4L132.3,33.4
			c0.4-0.2,0.8-0.5,0.9-0.9c0.1-0.3,0.1-1,0.1-1.5h-1.8v-2.4h3.8v2.7c0,1.6-1,2.9-3.1,3.9v2.2V45c0,1.3-0.2,2.6-0.7,3.7
			c-0.4,1.1-1.1,2.1-1.9,2.9c-0.8,0.8-1.8,1.4-3,1.9s-2.5,0.7-3.9,0.7c-1.5,0-2.8-0.2-4-0.7s-2.2-1.1-3-1.9
			c-0.8-0.8-1.4-1.8-1.9-2.9c-0.4-1.1-0.6-2.4-0.6-3.7V32h5.1v13c0,0.8,0.1,1.5,0.3,2.1c0.2,0.6,0.5,1.1,0.8,1.6
			c0.4,0.4,0.8,0.8,1.4,1c0.5,0.2,1.1,0.3,1.8,0.3c0.7,0,1.3-0.1,1.8-0.3s1-0.5,1.4-1c0.4-0.4,0.7-0.9,0.9-1.6
			c0.2-0.6,0.3-1.3,0.3-2.1V32h5.1v1.4H132.3z"/>
		<path class="st0" d="M71,47.6l6.1-14.8c0.1-0.2,0.2-0.3,0.3-0.4c0.1-0.1,0.2-0.2,0.4-0.2c0.1,0,0.3-0.1,0.4-0.1c0.2,0,0.9,0,1.1,0
			h3.9v22h-4.5V41.4c0-0.6,0-1.3,0.1-2L73,53c-0.2,0.4-0.4,0.6-0.7,0.8c-0.3,0.1-0.7,0.2-1,0.2h-0.7c-0.4,0-0.7-0.1-1-0.3
			s-0.6-0.4-0.7-0.8L63,39.4c0,0.4,0.1,0.7,0.1,1s0,0.7,0,1V54h-4.5V32h3.9c0.2,0,1.1,0,1.2,0c0.2,0,0.3,0,0.4,0.1
			c0.1,0,0.3,0.1,0.4,0.2c0.1,0.1,0.2,0.3,0.3,0.4C66.9,38.2,68.9,42.3,71,47.6L71,47.6z M42.7,45.7L42.7,45.7h6l-2-6
			c-0.2-0.4-0.3-0.8-0.5-1.4c-0.2-0.5-0.3-1.1-0.5-1.7c-0.2,0.6-0.3,1.2-0.5,1.7s-0.3,1-0.5,1.4L42.7,45.7L42.7,45.7z M56.8,54.1
			L56.8,54.1h-4c-0.4,0-0.8-0.1-1.1-0.3s-0.5-0.5-0.6-0.8l-1.3-3.8h-8.4L40.2,53c-0.1,0.3-0.3,0.5-0.6,0.8c-0.3,0.2-0.6,0.3-1.1,0.3
			h-4l8.5-22h5.2L56.8,54.1L56.8,54.1z M16.3,32.1L16.3,32.1c0.2,0,0.4,0,0.6,0s0.3,0.1,0.4,0.1c0.1,0.1,0.2,0.1,0.3,0.2
			c0.1,0.1,0.2,0.2,0.4,0.4L28.4,46c0-0.4-0.1-0.8-0.1-1.2s0-0.8,0-1.1V32.1h4.5v22h-2.7c-0.4,0-0.7-0.1-1-0.2
			c-0.3-0.1-0.5-0.3-0.8-0.7L18,40.1c0,0.4,0.1,0.8,0.1,1.1c0,0.4,0,0.7,0,1V54h-4.5V32L16.3,32.1C16.3,32,16.3,32.1,16.3,32.1z"/>
	</g>
</g>
<g>
	<path class="st0" d="M359.8,37h-4.2v14h4.2c1,0,1.9-0.2,2.8-0.5c0.9-0.4,1.6-0.9,2.2-1.5s1.1-1.4,1.5-2.2c0.4-0.9,0.5-1.8,0.5-2.7
		c0-1-0.2-1.9-0.5-2.7c-0.4-0.9-0.9-1.6-1.5-2.2c-0.6-0.6-1.4-1.1-2.2-1.5C361.7,37.2,360.7,37,359.8,37 M360.6,57.7h-12.2V30.4
		h12.2c1.9,0,3.7,0.4,5.3,1.1c1.7,0.7,3.1,1.7,4.4,2.9c1.2,1.2,2.2,2.7,2.9,4.3c0.7,1.7,1.1,3.4,1.1,5.3c0,1.9-0.4,3.6-1.1,5.3
		s-1.7,3.1-2.9,4.3c-1.2,1.2-2.7,2.2-4.4,2.9C364.3,57.3,362.5,57.7,360.6,57.7z"/>
	<polygon class="st0" points="388.8,43.3 399.6,57.7 390.7,57.7 383.2,48.5 383.2,57.7 375.7,57.7 375.7,30.4 383.2,30.4 
		383.2,39.5 390.7,30.4 399.9,30.4 	"/>
	<path class="st0" d="M412.5,36.4h-4.3v5.9h4.3c0.4,0,0.8-0.1,1.2-0.2c0.4-0.2,0.7-0.4,1-0.6c0.3-0.3,0.5-0.6,0.7-0.9
		c0.2-0.4,0.2-0.7,0.2-1.2c0-0.4-0.1-0.8-0.2-1.2c-0.2-0.3-0.4-0.7-0.7-0.9c-0.3-0.3-0.6-0.5-1-0.6
		C413.3,36.5,412.9,36.4,412.5,36.4 M417.8,57.7l-4.7-8.4h-4.6v8.4H401V30.4h13.7c0.7,0,1.3,0.1,2,0.4c0.7,0.2,1.3,0.6,2,1
		c0.6,0.4,1.2,0.9,1.8,1.4c0.5,0.5,1,1,1.4,1.6c0.5,0.7,0.8,1.5,1.1,2.4c0.2,0.9,0.4,1.8,0.4,2.6c0,1.4-0.3,2.6-0.9,3.8
		s-1.5,2.2-2.6,3l6.4,11.3h-8.5V57.7z"/>
	<path class="st0" d="M438.5,58.5c-2,0-3.9-0.4-5.6-1.1c-1.7-0.8-3.3-1.8-4.6-3.1c-1.3-1.3-2.3-2.9-3.1-4.6
		c-0.8-1.7-1.1-3.6-1.1-5.6s0.4-3.8,1.1-5.6c0.8-1.7,1.8-3.3,3.1-4.6c1.3-1.3,2.8-2.4,4.6-3.1c1.7-0.8,3.6-1.1,5.6-1.1
		c1.8,0,3.6,0.3,5.3,1c1.7,0.7,3.2,1.6,4.7,2.9l-5.6,4.9c-1.4-1-2.8-1.4-4.3-1.4c-1,0-1.9,0.2-2.7,0.6c-0.8,0.4-1.6,0.9-2.2,1.5
		c-0.6,0.7-1.1,1.4-1.4,2.3c-0.4,0.9-0.5,1.8-0.5,2.7c0,1,0.2,1.9,0.5,2.7c0.4,0.9,0.8,1.6,1.4,2.3c0.6,0.6,1.3,1.2,2.2,1.5
		c0.8,0.4,1.7,0.6,2.7,0.6c1.1,0,2.2-0.3,3.1-0.8c1-0.5,1.8-1.2,2.5-2.2L450,53c-1.5,1.8-3.2,3.2-5.2,4.1
		C442.9,58,440.7,58.5,438.5,58.5"/>
	<g>
		<path class="st0" d="M350,65v-1.9h0.9c0.5,0,0.9,0.3,0.9,0.9c0,0.6-0.3,0.9-0.9,0.9L350,65L350,65z M348.9,68.2h1.1V66h0.6
			c0.3,0,0.4,0,0.6,0.3l0.8,1.5c0.2,0.4,0.4,0.4,0.8,0.4h0.6v-0.9h-0.1c-0.2,0-0.3,0-0.4-0.2l-0.6-1.1c-0.1-0.2-0.3-0.3-0.3-0.3l0,0
			c0.3-0.1,1-0.5,1-1.6s-0.8-1.8-1.9-1.8h-2.7v0.9h0.5V68.2z"/>
		<path class="st0" d="M354.2,67.6c0,0.4,0.2,0.6,0.6,0.6h2.7c0.4,0,0.6-0.2,0.6-0.6v-0.9h-1v0.4c0,0.1-0.1,0.2-0.2,0.2h-1.4
			c-0.1,0-0.2-0.1-0.2-0.2v-1.4h1.9v-0.9h-1.9v-1.6h1.3c0.1,0,0.2,0.1,0.2,0.2v0.4h1v-0.9c0-0.4-0.2-0.6-0.6-0.6h-3.6v0.9h0.5v4.4
			H354.2z"/>
		<path class="st0" d="M360.3,65.8l0.5-1.5c0.1-0.3,0.2-0.9,0.2-0.9l0,0c0,0,0.1,0.6,0.2,0.9l0.5,1.5H360.3z M358.3,68.2h0.7
			c0.4,0,0.6-0.1,0.7-0.5l0.4-1h2l0.4,1c0.1,0.4,0.3,0.5,0.7,0.5h0.7v-0.9h-0.1c-0.1,0-0.2,0-0.3-0.2l-1.8-4.8h-1.1l-1.8,4.8
			c-0.1,0.2-0.1,0.2-0.3,0.2h-0.1v0.9H358.3z"/>
		<path class="st0" d="M364.7,67.6c0,0.4,0.2,0.6,0.6,0.6h2.6c0.4,0,0.6-0.2,0.6-0.6v-0.9h-1v0.4c0,0.1-0.1,0.2-0.2,0.2H366
			c-0.1,0-0.2-0.1-0.2-0.2v-4.3c0-0.4-0.2-0.6-0.6-0.6h-1.1v0.9h0.4c0.1,0,0.2,0.1,0.2,0.2L364.7,67.6L364.7,67.6z"/>
		<path class="st0" d="M371.6,67.6c0,0.4,0.2,0.6,0.6,0.6h2.7c0.4,0,0.6-0.2,0.6-0.6v-0.9h-1v0.4c0,0.1-0.1,0.2-0.2,0.2h-1.4
			c-0.1,0-0.2-0.1-0.2-0.2v-1.4h1.9v-0.9h-1.9v-1.6h1.3c0.1,0,0.2,0.1,0.2,0.2v0.4h1v-0.9c0-0.4-0.2-0.6-0.6-0.6H371v0.9h0.5v4.4
			H371.6z"/>
		<path class="st0" d="M375.9,67.4c0,0,0.7,0.9,2,0.9c1.2,0,2-0.8,2-1.8c0-2-2.8-1.8-2.8-2.8c0-0.4,0.4-0.6,0.9-0.6
			c0.4,0,0.8,0.2,0.8,0.5v0.3h1v-0.6c0-0.8-1.1-1.2-1.8-1.2c-1.1,0-2,0.7-2,1.7c0,1.9,2.8,1.8,2.8,2.8c0,0.5-0.4,0.7-0.9,0.7
			c-0.8,0-1.4-0.7-1.4-0.7L375.9,67.4z"/>
		<path class="st0" d="M382.4,68.2h1.1v-5h0.9c0.1,0,0.2,0.1,0.2,0.2v0.4h1v-0.9c0-0.4-0.1-0.5-0.5-0.5H381c-0.4,0-0.5,0.1-0.5,0.5
			v0.9h1v-0.4c0-0.1,0.1-0.2,0.2-0.2h0.9v5H382.4z"/>
		<path class="st0" d="M387,65.8l0.5-1.5c0.1-0.3,0.2-0.9,0.2-0.9l0,0c0,0,0.1,0.6,0.2,0.9l0.5,1.5H387z M385,68.2h0.7
			c0.4,0,0.6-0.1,0.7-0.5l0.4-1h2l0.4,1c0.1,0.4,0.3,0.5,0.7,0.5h0.7v-0.9h-0.1c-0.1,0-0.2,0-0.3-0.2l-1.8-4.8h-1.1l-1.8,4.8
			c-0.1,0.2-0.1,0.2-0.3,0.2H385V68.2z"/>
		<path class="st0" d="M392.1,68.2h1.1v-5h0.9c0.1,0,0.2,0.1,0.2,0.2v0.4h1v-0.9c0-0.4-0.1-0.5-0.5-0.5h-4.1c-0.4,0-0.5,0.1-0.5,0.5
			v0.9h1v-0.4c0-0.1,0.1-0.2,0.2-0.2h0.9v5H392.1z"/>
		<path class="st0" d="M396.2,67.6c0,0.4,0.2,0.6,0.6,0.6h2.7c0.4,0,0.6-0.2,0.6-0.6v-0.9h-1v0.4c0,0.1-0.1,0.2-0.2,0.2h-1.4
			c-0.1,0-0.2-0.1-0.2-0.2v-1.4h1.9v-0.9h-1.9v-1.6h1.3c0.1,0,0.2,0.1,0.2,0.2v0.4h1v-0.9c0-0.4-0.2-0.6-0.6-0.6h-3.6v0.9h0.5v4.4
			H396.2z"/>
		<path class="st0" d="M402.7,67.4c0,0,0.7,0.9,2,0.9c1.2,0,2-0.8,2-1.8c0-2-2.8-1.8-2.8-2.8c0-0.4,0.4-0.6,0.9-0.6
			c0.4,0,0.8,0.2,0.8,0.5v0.3h1v-0.6c0-0.8-1.1-1.2-1.8-1.2c-1.1,0-2,0.7-2,1.7c0,1.9,2.8,1.8,2.8,2.8c0,0.5-0.4,0.7-0.9,0.7
			c-0.8,0-1.4-0.7-1.4-0.7L402.7,67.4z"/>
		<path class="st0" d="M445.9,67.4c0,0,0.7,0.9,2,0.9c1.2,0,2-0.8,2-1.8c0-2-2.8-1.8-2.8-2.8c0-0.4,0.4-0.6,0.9-0.6
			c0.4,0,0.8,0.2,0.8,0.5v0.3h1v-0.6c0-0.8-1.1-1.2-1.8-1.2c-1.1,0-2,0.7-2,1.7c0,1.9,2.8,1.8,2.8,2.8c0,0.5-0.4,0.7-0.9,0.7
			c-0.8,0-1.4-0.7-1.4-0.7L445.9,67.4z"/>
		<path class="st0" d="M408.4,65.2c0-1.1,0.9-2,1.9-2c1.1,0,1.9,0.9,1.9,2c0,1.2-0.9,2.1-1.9,2.1C409.3,67.3,408.4,66.4,408.4,65.2
			 M407.3,65.2c0,1.8,1.3,3.1,3.1,3.1c1.8,0,3.1-1.4,3.1-3.1c0-1.7-1.3-3-3.1-3C408.6,62.1,407.3,63.5,407.3,65.2z"/>
		<path class="st0" d="M414.5,67.6c0,0.4,0.2,0.6,0.6,0.6h2.6c0.4,0,0.6-0.2,0.6-0.6v-0.9h-1v0.4c0,0.1-0.1,0.2-0.2,0.2h-1.3
			c-0.1,0-0.2-0.1-0.2-0.2v-4.3c0-0.4-0.2-0.6-0.6-0.6h-1v0.9h0.4c0.1,0,0.2,0.1,0.2,0.2v4.3C414.6,67.6,414.5,67.6,414.5,67.6z"/>
		<path class="st0" d="M418.8,66.1c0,1.3,0.9,2.2,2.3,2.2s2.3-0.9,2.3-2.2v-2.7c0-0.1,0.1-0.2,0.2-0.2h0.4v-0.9h-1
			c-0.4,0-0.6,0.2-0.6,0.6V66c0,0.8-0.5,1.2-1.2,1.2S420,66.7,420,66v-3.2c0-0.4-0.2-0.6-0.6-0.6h-1.1v0.9h0.4
			c0.1,0,0.2,0.1,0.2,0.2L418.8,66.1L418.8,66.1z"/>
		<path class="st0" d="M426.4,68.2h1.1v-5h0.9c0.1,0,0.2,0.1,0.2,0.2v0.4h1v-0.9c0-0.4-0.1-0.5-0.5-0.5H425c-0.4,0-0.5,0.1-0.5,0.5
			v0.9h1v-0.4c0-0.1,0.1-0.2,0.2-0.2h0.9v5H426.4z"/>
		<polygon class="st0" points="430,68.2 432.3,68.2 432.3,67.3 431.7,67.3 431.7,63.2 432.3,63.2 432.3,62.2 430,62.2 430,63.2 
			430.6,63.2 430.6,67.3 430,67.3 		"/>
		<path class="st0" d="M434,65.2c0-1.1,0.9-2,1.9-2s1.9,0.9,1.9,2c0,1.2-0.9,2.1-1.9,2.1S434,66.4,434,65.2 M432.8,65.2
			c0,1.8,1.3,3.1,3.1,3.1s3.1-1.4,3.1-3.1c0-1.7-1.3-3-3.1-3S432.8,63.5,432.8,65.2z"/>
		<path class="st0" d="M439.5,68.2h1.1c0.4,0,0.6-0.2,0.6-0.6v-2.7c0-0.3-0.1-0.8-0.1-0.8l0,0c0,0,0.3,0.5,0.5,0.8l2.3,3.3h1v-4.8
			c0-0.1,0.1-0.2,0.2-0.2h0.4v-0.9h-1.1c-0.4,0-0.6,0.2-0.6,0.6v2.7c0,0.3,0.1,0.8,0.1,0.8l0,0c0,0-0.3-0.5-0.5-0.8l-2.3-3.3h-1v4.8
			c0,0.1-0.1,0.2-0.2,0.2h-0.4V68.2z"/>
	</g>
	<path class="st1" d="M473.3,33.8l-4.4,2.5l-4.4,2.5v5.1V49l4.4,2.5l0,0l4.4,2.5l4.4-2.5l0,0L482,49v-5.1v-5.1l-4.4-2.5L473.3,33.8z
		 M457,52.6l6.6-3.8v-4.9v-5.3v-0.2l0.2-0.1l4.6-2.6l4.6-2.6l0.2-0.1l0.2,0.1l4.6,2.6l4.3,2.5l6.5-3.7l0.4,0.7l-6.5,3.7V44v5.3v0.2
		l-0.2,0.1l-4.6,2.6l0,0l-4.6,2.6l-0.2,0.1l-0.2-0.1l-4.6-2.6l0,0l-4.5-2.6l-6.5,3.7L457,52.6z"/>
	<polygon class="st1" points="473.3,63.5 473.2,63.5 464.8,58.6 456.4,53.8 456.4,44 456.4,34.3 464.8,29.4 473.1,24.6 473.3,24.5 
		473.3,31.7 473.1,31.7 467.9,34.7 462.6,37.8 462.6,44 462.6,50.2 467.9,53.3 473.2,56.3 473.3,56.3 	"/>
	<polygon class="st0" points="473.3,24.5 481.7,29.4 490.1,34.3 490.1,44 490.1,53.8 481.7,58.6 473.3,63.5 473.3,56.3 478.6,53.3 
		483.9,50.2 483.9,44 483.9,37.8 478.6,34.7 473.3,31.7 	"/>
</g>
<g id="XMLID_1299_">
	<g id="XMLID_1352_">
		<path id="XMLID_1414_" class="st0" d="M212.9,67.9H211l-0.5,1.2h-1.2l2.9-5.4h1.1l1.1,5.4h-1.1L212.9,67.9z M211.4,66.9h1.3
			l-0.3-2L211.4,66.9z"/>
		<path id="XMLID_1412_" class="st0" d="M216.1,64.9l-0.1,0.4c0.3-0.4,0.7-0.5,1.2-0.5c0.4,0,0.6,0.1,0.9,0.4s0.2,0.6,0.2,1.2
			l-0.4,2.6h-1.1l0.4-2.6c0-0.1,0-0.2,0-0.2c0-0.2-0.2-0.4-0.4-0.4c-0.3,0-0.5,0.1-0.7,0.4l-0.5,2.9h-1.1l0.7-4.1L216.1,64.9z"/>
		<path id="XMLID_1410_" class="st0" d="M222.7,64l-0.2,1h0.6l-0.1,0.7h-0.6l-0.3,2c0,0.1,0,0.2,0,0.3c0,0.1,0.1,0.1,0.2,0.1
			c0,0,0.1,0,0.3,0l-0.1,0.9c-0.2,0.1-0.4,0.1-0.6,0.1c-0.3,0-0.6-0.1-0.7-0.3c-0.2-0.2-0.2-0.5-0.2-0.9l0.3-2.1h-0.5l0.1-0.7h0.5
			l0.2-1h1.2V64z"/>
		<path id="XMLID_1407_" class="st0" d="M225.3,64.9c0.3,0,0.6,0.1,1,0.3c0.2,0.2,0.4,0.4,0.5,0.7c0.1,0.3,0.2,0.6,0.1,1.1
			c-0.1,0.6-0.3,1.2-0.6,1.6c-0.4,0.4-0.9,0.6-1.5,0.5c-0.3,0-0.6-0.1-1-0.3c-0.2-0.2-0.4-0.4-0.5-0.7c-0.1-0.3-0.2-0.6-0.1-1.1
			c0.1-0.6,0.3-1.2,0.6-1.6C224.3,65,224.8,64.8,225.3,64.9z M224.2,67.4c0,0.2,0.1,0.4,0.2,0.5c0.1,0.1,0.2,0.2,0.4,0.2
			c0.3,0,0.5-0.1,0.7-0.4s0.3-0.7,0.2-1.2c0-0.2-0.1-0.4-0.2-0.5c-0.1-0.1-0.2-0.2-0.4-0.2c-0.3,0-0.5,0.1-0.7,0.4
			C224.3,66.5,224.2,66.9,224.2,67.4z"/>
		<path id="XMLID_1403_" class="st0" d="M229.7,69c0-0.1,0-0.2,0-0.3c-0.3,0.3-0.6,0.4-1.1,0.4c-0.3,0-0.6-0.1-0.9-0.3
			c-0.2-0.2-0.3-0.5-0.3-0.9c0-0.4,0.2-0.7,0.5-1.1c0.3-0.2,0.9-0.3,1.4-0.3h0.5v-0.2c0-0.1,0-0.2,0-0.2c0-0.1-0.1-0.2-0.1-0.3
			c-0.1-0.1-0.2-0.1-0.3-0.1c-0.2,0-0.3,0-0.4,0.1c-0.1,0.1-0.2,0.2-0.2,0.3h-1.1c0-0.4,0.2-0.7,0.5-1c0.3-0.2,0.7-0.3,1.3-0.3
			c0.4,0,0.9,0.1,1.1,0.4c0.2,0.2,0.3,0.6,0.3,1.1l-0.3,1.9v0.2c0,0.2,0,0.3,0.1,0.4V69C230.7,69,229.7,69,229.7,69z M228.8,68.2
			c0.3,0,0.5-0.1,0.7-0.4l0.1-0.7h-0.3c-0.4,0-0.6,0.1-0.9,0.3c-0.1,0.1-0.1,0.2-0.1,0.3c0,0.1,0,0.2,0.1,0.3
			C228.6,68.2,228.7,68.2,228.8,68.2z M230.2,64.4h-0.7l-0.9-1.2h1.1L230.2,64.4z"/>
		<path id="XMLID_1401_" class="st0" d="M233,64.9l-0.1,0.4c0.3-0.4,0.7-0.5,1.2-0.5c0.4,0,0.6,0.1,0.9,0.4s0.2,0.6,0.2,1.2
			l-0.4,2.6h-1.1l0.4-2.6c0-0.1,0-0.2,0-0.2c0-0.2-0.2-0.4-0.4-0.4c-0.3,0-0.5,0.1-0.7,0.4l-0.5,2.9h-1.1L232,65L233,64.9z"/>
		<path id="XMLID_1398_" class="st0" d="M242.1,64.4h-0.5l-0.7,4.6h-1l0.1-0.4c-0.3,0.3-0.6,0.5-1.1,0.5s-0.6-0.1-1-0.4
			c-0.2-0.3-0.3-0.6-0.3-1.2c0-0.1,0-0.3,0-0.5c0-0.4,0.2-0.7,0.3-1.2c0.2-0.3,0.4-0.5,0.6-0.7c0.2-0.1,0.5-0.2,0.9-0.2
			c0.4,0,0.6,0.2,1,0.4l0.2-0.9h-1l0.1-0.6h1l0.1-0.5h1.1l-0.1,0.5h0.5L242.1,64.4z M238.6,67.4c0,0.2,0,0.4,0.1,0.5
			s0.2,0.2,0.4,0.2c0.3,0,0.5-0.1,0.7-0.4l0.3-1.6c-0.1-0.3-0.3-0.4-0.6-0.4s-0.5,0.1-0.7,0.4C238.7,66.5,238.6,66.8,238.6,67.4z"/>
		<path id="XMLID_1393_" class="st0" d="M244.5,69c0-0.1,0-0.2,0-0.3c-0.3,0.3-0.6,0.4-1.1,0.4c-0.3,0-0.6-0.1-0.9-0.3
			c-0.2-0.2-0.3-0.5-0.3-0.9c0-0.4,0.2-0.7,0.5-1.1c0.3-0.2,0.9-0.3,1.4-0.3h0.5v-0.2c0-0.1,0-0.2,0-0.2c0-0.1-0.1-0.2-0.1-0.3
			c-0.1-0.1-0.2-0.1-0.3-0.1c-0.2,0-0.3,0-0.4,0.1c-0.1,0.1-0.2,0.2-0.2,0.3h-1.1c0-0.4,0.2-0.7,0.5-1c0.3-0.2,0.7-0.3,1.3-0.3
			c0.4,0,0.9,0.1,1.1,0.4c0.2,0.2,0.3,0.6,0.3,1.1l-0.3,1.9v0.2c0,0.2,0,0.3,0.1,0.4V69C245.6,69,244.5,69,244.5,69z M243.5,63.8
			H243l-0.6-1h0.7L243.5,63.8z M245.8,64.4H245l-0.4-0.4l-0.6,0.4h-0.9l1.2-0.9h0.6L245.8,64.4z M243.6,68.2c0.3,0,0.5-0.1,0.7-0.4
			l0.1-0.7h-0.3c-0.4,0-0.6,0.1-0.9,0.3c-0.1,0.1-0.1,0.2-0.1,0.3c0,0.1,0,0.2,0.1,0.3C243.4,68.2,243.5,68.2,243.6,68.2z"/>
		<path id="XMLID_1391_" class="st0" d="M248.6,68.5c-0.3,0.3-0.6,0.5-1.1,0.5s-0.6-0.1-0.9-0.4s-0.3-0.6-0.2-1.1l0.4-2.7h1.1
			l-0.4,2.7c0,0.1,0,0.2,0,0.2c0,0.2,0.2,0.4,0.4,0.4c0.3,0,0.6-0.1,0.9-0.4l0.5-2.9h1.1l-0.7,4.1h-1L248.6,68.5z"/>
		<path id="XMLID_1389_" class="st0" d="M254.4,64l-0.2,1h0.6l-0.1,0.7h-0.6l-0.3,2c0,0.1,0,0.2,0,0.3c0,0.1,0.1,0.1,0.2,0.1
			c0,0,0.1,0,0.3,0l-0.1,0.9c-0.2,0.1-0.4,0.1-0.6,0.1c-0.3,0-0.6-0.1-0.7-0.3c-0.2-0.2-0.2-0.5-0.2-0.9l0.3-2.1h-0.5l0.1-0.7h0.5
			l0.2-1h1.2V64z"/>
		<path id="XMLID_1387_" class="st0" d="M260.1,64.6c0,0.4-0.1,0.7-0.3,1c-0.2,0.2-0.5,0.3-1,0.4l-0.5,3h-1l0.1-0.4
			c-0.3,0.3-0.6,0.5-1.1,0.5s-0.6-0.1-0.9-0.4s-0.3-0.6-0.2-1.1l0.4-2.7h1.1l-0.4,2.7c0,0.1,0,0.2,0,0.2c0,0.2,0.2,0.4,0.4,0.4
			c0.3,0,0.6-0.1,0.9-0.4l0.5-2.9h1.1l-0.1,0.5c0.2,0,0.3-0.1,0.4-0.3c0.1-0.1,0.1-0.3,0.2-0.6L260.1,64.6z"/>
		<path id="XMLID_1385_" class="st0" d="M263.7,67h-2l0.1-0.9h2L263.7,67z"/>
		<path id="XMLID_1382_" class="st0" d="M269.3,67.9h-1.9l-0.5,1.2h-1.2l2.9-5.4h1.1l1.1,5.4h-1.2L269.3,67.9z M267.8,66.9h1.3
			l-0.3-2L267.8,66.9z"/>
		<path id="XMLID_1380_" class="st0" d="M272.6,64.9l-0.1,0.4c0.3-0.4,0.7-0.5,1.2-0.5s0.6,0.1,0.9,0.4c0.2,0.3,0.2,0.6,0.2,1.2
			l-0.4,2.6h-1.1l0.4-2.6c0-0.1,0-0.2,0-0.2c0-0.2-0.2-0.4-0.4-0.4c-0.3,0-0.5,0.1-0.7,0.4l-0.5,2.9h-1.1l0.7-4.1L272.6,64.9z"/>
		<path id="XMLID_1378_" class="st0" d="M278.8,68.2c0.2,0,0.3,0,0.5-0.1c0.1-0.1,0.2-0.2,0.2-0.4h1c0,0.3-0.1,0.5-0.3,0.7
			c-0.2,0.2-0.4,0.4-0.6,0.5c-0.3,0.1-0.5,0.2-0.9,0.2c-0.5,0-0.9-0.2-1.2-0.5c-0.3-0.3-0.4-0.7-0.4-1.3v-0.2l0,0
			c0.1-0.6,0.3-1.2,0.6-1.6c0.4-0.4,0.9-0.5,1.4-0.5c0.4,0,0.9,0.1,1.1,0.4c0.3,0.3,0.4,0.6,0.4,1.2h-1c0-0.2,0-0.4-0.1-0.5
			s-0.2-0.2-0.4-0.2c-0.5,0-0.9,0.3-1,1.1c0,0.3,0,0.5,0,0.6C278.3,68,278.5,68.2,278.8,68.2z"/>
		<path id="XMLID_1376_" class="st0" d="M286.2,64.6c0,0.4-0.1,0.7-0.3,1c-0.2,0.2-0.5,0.3-1,0.4l-0.5,3h-1l0.1-0.4
			c-0.3,0.3-0.6,0.5-1.1,0.5s-0.6-0.1-0.9-0.4c-0.2-0.3-0.3-0.6-0.2-1.1l0.4-2.7h1.1l-0.4,2.7c0,0.1,0,0.2,0,0.2
			c0,0.2,0.2,0.4,0.4,0.4c0.3,0,0.6-0.1,0.9-0.4l0.5-2.9h1.1l-0.1,0.5c0.2,0,0.3-0.1,0.4-0.3c0.1-0.1,0.1-0.3,0.2-0.6L286.2,64.6z"
			/>
		<path id="XMLID_1374_" class="st0" d="M289.2,68.2c0.2,0,0.3,0,0.5-0.1c0.1-0.1,0.2-0.2,0.2-0.4h1c0,0.3-0.1,0.5-0.3,0.7
			c-0.2,0.2-0.4,0.4-0.6,0.5c-0.3,0.1-0.5,0.2-0.9,0.2c-0.5,0-0.9-0.2-1.2-0.5c-0.3-0.3-0.4-0.7-0.4-1.3v-0.2l0,0
			c0.1-0.6,0.3-1.2,0.6-1.6c0.4-0.4,0.9-0.5,1.4-0.5c0.4,0,0.9,0.1,1.1,0.4c0.3,0.3,0.4,0.6,0.4,1.2h-1c0-0.2,0-0.4-0.1-0.5
			s-0.2-0.2-0.4-0.2c-0.5,0-0.9,0.3-1,1.1c0,0.3,0,0.5,0,0.6C288.6,68,288.8,68.2,289.2,68.2z"/>
		<path id="XMLID_1372_" class="st0" d="M293.9,68.5c-0.3,0.3-0.6,0.5-1.1,0.5s-0.6-0.1-0.9-0.4c-0.2-0.3-0.3-0.6-0.2-1.1l0.4-2.7
			h1.1l-0.4,2.7c0,0.1,0,0.2,0,0.2c0,0.2,0.2,0.4,0.4,0.4c0.3,0,0.6-0.1,0.9-0.4l0.5-2.9h1.1l-0.7,4.1h-1L293.9,68.5z"/>
		<path id="XMLID_1367_" class="st0" d="M297.8,64.9c0.3,0,0.6,0.1,1,0.3c0.2,0.2,0.4,0.4,0.5,0.7c0.1,0.3,0.2,0.6,0.1,1.1
			c-0.1,0.6-0.3,1.2-0.6,1.6c-0.4,0.4-0.9,0.6-1.5,0.5c-0.3,0-0.6-0.1-1-0.3c-0.2-0.2-0.4-0.4-0.5-0.7c-0.1-0.3-0.2-0.6-0.1-1.1
			c0.1-0.6,0.3-1.2,0.6-1.6C296.8,65,297.3,64.8,297.8,64.9z M296.5,69.9c0-0.2,0-0.3,0.2-0.4c0.1-0.1,0.2-0.1,0.4-0.1
			c0.1,0,0.3,0,0.4,0.1c0.1,0.1,0.2,0.2,0.2,0.3c0,0.2,0,0.3-0.2,0.4c-0.1,0.1-0.2,0.1-0.4,0.1c-0.2,0-0.3,0-0.4-0.1
			S296.5,70,296.5,69.9z M299.4,64.3L299.4,64.3l-0.9,0.1l-0.4-0.5l-0.6,0.5h-0.9v-0.1l1.2-1.1h0.6L299.4,64.3z M296.7,67.4
			c0,0.2,0.1,0.4,0.2,0.5s0.2,0.2,0.4,0.2c0.3,0,0.5-0.1,0.7-0.4c0.2-0.3,0.3-0.7,0.2-1.2c0-0.2-0.1-0.4-0.2-0.5s-0.2-0.2-0.4-0.2
			c-0.3,0-0.5,0.1-0.7,0.4C296.8,66.5,296.7,66.9,296.7,67.4z"/>
		<path id="XMLID_1365_" class="st0" d="M301.5,68.2c0.2,0,0.3,0,0.5-0.1c0.1-0.1,0.2-0.2,0.2-0.4h1c0,0.3-0.1,0.5-0.3,0.7
			c-0.2,0.2-0.4,0.4-0.6,0.5c-0.3,0.1-0.5,0.2-0.9,0.2c-0.5,0-0.9-0.2-1.2-0.5c-0.3-0.3-0.4-0.7-0.4-1.3v-0.2l0,0
			c0.1-0.6,0.3-1.2,0.6-1.6c0.4-0.4,0.9-0.5,1.4-0.5c0.4,0,0.9,0.1,1.1,0.4c0.3,0.3,0.4,0.6,0.4,1.2h-1c0-0.2,0-0.4-0.1-0.5
			s-0.2-0.2-0.4-0.2c-0.5,0-0.9,0.3-1,1.1c0,0.3,0,0.5,0,0.6C301,68,301.2,68.2,301.5,68.2z"/>
		<path id="XMLID_1363_" class="st0" d="M307.9,67.9c0-0.2-0.1-0.3-0.4-0.4l-0.3-0.1c-0.9-0.2-1.2-0.6-1.2-1.2c0-0.4,0.2-0.7,0.5-1
			c0.3-0.2,0.7-0.3,1.2-0.3s0.9,0.1,1.1,0.3c0.3,0.2,0.4,0.5,0.4,1h-1.1c0-0.3-0.2-0.5-0.5-0.5c-0.2,0-0.3,0-0.4,0.1
			S307,66,307,66.1c0,0.2,0.1,0.3,0.4,0.4h0.1c0.3,0.1,0.6,0.2,0.7,0.3c0.2,0.1,0.3,0.2,0.4,0.4c0.1,0.1,0.1,0.3,0.1,0.5
			s-0.1,0.5-0.2,0.6c-0.1,0.2-0.4,0.3-0.6,0.4c-0.3,0.1-0.5,0.1-0.9,0.1c-0.4,0-0.9-0.1-1.2-0.4c-0.3-0.2-0.4-0.5-0.4-1h1
			c0,0.4,0.2,0.5,0.6,0.6c0.2,0,0.3,0,0.5-0.1C307.8,68.1,307.9,68,307.9,67.9z"/>
		<path id="XMLID_1358_" class="st0" d="M311.8,64.9c0.3,0,0.6,0.1,1,0.3c0.2,0.2,0.4,0.4,0.5,0.7c0.1,0.3,0.2,0.6,0.1,1.1
			c-0.1,0.6-0.3,1.2-0.6,1.6c-0.4,0.4-0.9,0.6-1.5,0.5c-0.3,0-0.6-0.1-1-0.3c-0.2-0.2-0.4-0.4-0.5-0.7c-0.1-0.3-0.2-0.6-0.1-1.1
			c0.1-0.6,0.3-1.2,0.6-1.6C310.7,65,311.2,64.8,311.8,64.9z M311.7,63.5h0.6l1,0.9h-0.7l-0.4-0.4l-0.6,0.4h-0.9L311.7,63.5z
			 M310.7,67.4c0,0.2,0.1,0.4,0.2,0.5s0.2,0.2,0.4,0.2c0.3,0,0.5-0.1,0.7-0.4s0.3-0.7,0.2-1.2c0-0.2-0.1-0.4-0.2-0.5
			s-0.2-0.2-0.4-0.2c-0.3,0-0.5,0.1-0.7,0.4C310.8,66.5,310.7,66.9,310.7,67.4z M313.8,62.9h1l-1,1.1h-0.6L313.8,62.9z"/>
		<path id="XMLID_1356_" class="st0" d="M315.4,64.9l-0.1,0.4c0.3-0.4,0.7-0.5,1.2-0.5s0.6,0.1,0.9,0.4c0.2,0.3,0.2,0.6,0.2,1.2
			l-0.4,2.6H316l0.4-2.6c0-0.1,0-0.2,0-0.2c0-0.2-0.2-0.4-0.4-0.4c-0.3,0-0.5,0.1-0.7,0.4l-0.5,2.9h-1.1l0.7-4.1L315.4,64.9z"/>
		<path id="XMLID_1353_" class="st0" d="M318.1,66.9c0.1-0.6,0.3-1.2,0.6-1.5c0.3-0.4,0.7-0.5,1.3-0.5c0.4,0,0.7,0.2,1,0.4l0.1-0.4
			h1l-0.6,3.9c-0.1,0.5-0.3,1-0.6,1.3c-0.4,0.3-0.9,0.4-1.4,0.4c-0.3,0-0.5-0.1-0.9-0.2c-0.2-0.1-0.4-0.3-0.6-0.4l0.5-0.6
			c0.2,0.3,0.5,0.4,0.9,0.4s0.5-0.1,0.7-0.2s0.3-0.3,0.4-0.6l0.1-0.2c-0.3,0.3-0.6,0.4-1,0.4c-0.4,0-0.7-0.1-1-0.4
			c-0.2-0.3-0.3-0.6-0.4-1.2C318.1,67.4,318.1,67.2,318.1,66.9z M319.1,67.4c0,0.2,0,0.4,0.1,0.5s0.2,0.2,0.4,0.2
			c0.3,0,0.5-0.1,0.7-0.3l0.3-1.7c-0.1-0.2-0.3-0.3-0.6-0.3c-0.3,0-0.5,0.1-0.6,0.3c-0.2,0.2-0.3,0.5-0.3,0.9
			C319.1,67.2,319.1,67.3,319.1,67.4z"/>
	</g>
	<g>
		<g id="XMLID_1309_">
			<polygon id="XMLID_1351_" class="st0" points="259.2,48.6 253.4,39.9 253.4,48.6 246.2,48.6 246.2,26.8 253.4,26.8 253.4,35.2 
				259.2,26.8 268,26.8 259.7,37.4 268,48.6 			"/>
			<polygon id="XMLID_1350_" class="st0" points="283.9,39.8 269.6,39.8 269.6,48.6 276.9,48.6 276.9,40.3 281.9,48.6 289.8,48.6 
							"/>
			<rect id="XMLID_1349_" x="269.6" y="34.4" class="st0" width="7.4" height="0.9"/>
			<rect id="XMLID_1348_" x="269.6" y="35.7" class="st0" width="7.4" height="0.9"/>
			<g id="XMLID_1341_">
				<path id="XMLID_1347_" class="st0" d="M308.1,37.4c-0.2-0.1-0.4-0.3-0.6-0.4H293c0.3,0.3,0.6,0.6,1,0.9c0.1,0,0.1,0.1,0.2,0.1
					h14.6C308.6,37.7,308.4,37.6,308.1,37.4z"/>
				<path id="XMLID_1346_" class="st0" d="M298,33.5c-0.1-0.2-0.2-0.5-0.2-1c0-0.7,0.3-1.3,0.9-1.6c0.5-0.3,1.2-0.5,1.9-0.5
					c1,0,1.7,0.2,2.2,0.6c0.6,0.4,1,1.1,1,1.9h0.6h4.5h0.6c0-2-0.7-3.5-2.2-4.6c-1.4-1.1-3.5-1.6-6.5-1.6c-0.1,0-0.1,0-0.2,0
					s-0.3,0-0.4,0c-1.4,0-2.6,0.1-3.6,0.4s-1.9,0.7-2.7,1.3c-0.7,0.5-1.3,1.3-1.7,2c-0.4,0.7-0.5,1.6-0.5,2.6c0,0.2,0,0.5,0,0.7h6.7
					C298.2,33.8,298.1,33.6,298,33.5z"/>
				<path id="XMLID_1345_" class="st0" d="M302.4,35.3c-1-0.2-1.7-0.4-2.3-0.6c-0.3-0.1-0.6-0.2-0.9-0.3h-7.4c0,0.3,0.1,0.6,0.2,1
					L302.4,35.3C302.5,35.3,302.4,35.3,302.4,35.3z"/>
				<path id="XMLID_1344_" class="st0" d="M299.3,39.9c0.9,0.2,1.6,0.4,2.1,0.5c0.6,0.2,1.1,0.3,1.5,0.5c0.4,0.2,0.6,0.4,0.9,0.6
					c0.2,0.2,0.3,0.6,0.3,1.1c0,0.9-0.3,1.4-1,1.8c-0.5,0.4-1.3,0.6-2.2,0.6c-1.2,0-2-0.3-2.7-0.9c-0.5-0.4-0.9-1.1-1-1.9h-6.1
					c0.1,1,0.3,1.7,0.6,2.5c0.4,0.9,1,1.5,1.7,2.1c0.7,0.5,1.7,1,2.9,1.3c1.2,0.3,2.5,0.4,4.1,0.4c0.1,0,0.2,0,0.3,0
					c0.1,0,0.2,0,0.3,0c1.6,0,2.9-0.2,4.1-0.5c1.2-0.3,2-0.9,2.8-1.4c0.7-0.6,1.3-1.3,1.6-2.1c0.3-0.9,0.5-1.7,0.5-2.7
					c0-0.9-0.1-1.5-0.3-2.1h-10.9C299.1,39.8,299.2,39.8,299.3,39.9z"/>
				<path id="XMLID_1343_" class="st0" d="M305.8,36.2c-0.5-0.2-1.1-0.3-1.7-0.5h-11.9c0,0.1,0.1,0.2,0.2,0.3
					c0.1,0.2,0.2,0.4,0.4,0.5h14.1C306.4,36.4,306.1,36.3,305.8,36.2z"/>
				<path id="XMLID_1342_" class="st0" d="M309.6,39.2c-0.1-0.3-0.3-0.5-0.5-0.9h-14.3c0.4,0.2,1,0.4,1.5,0.6
					c0.3,0.1,0.7,0.2,1.1,0.3h12.3C309.7,39.3,309.6,39.2,309.6,39.2z"/>
			</g>
			<path id="XMLID_1338_" class="st0" d="M231.4,48.6h-10.1V26.8h10.2c7.4,0,13.1,3.3,13.1,10.8C244.6,45.2,238.7,48.6,231.4,48.6
				 M230.9,31.8h-2.1v11.8h2.1c3.9,0,5.9-1.7,5.9-6.1C236.8,33.2,234.7,31.8,230.9,31.8"/>
			<g id="XMLID_1315_">
				<path id="XMLID_1337_" class="st0" d="M232.2,52.8L232.2,52.8c-0.1,0.3-0.1,0.6-0.2,1l-0.3,1.1h1.1l-0.3-1.1
					C232.4,53.4,232.3,53.1,232.2,52.8z"/>
				<path id="XMLID_1336_" class="st0" d="M286,52.8c-0.2,0-0.4,0-0.5,0V54h0.4c0.5,0,0.9-0.3,0.9-0.7C286.7,53,286.4,52.8,286,52.8
					z"/>
				<path id="XMLID_1318_" class="st0" d="M221.3,50.2v7.7h88.7v-7.7H221.3z M264.2,50.8h0.9l0.7,0.9h-0.7l-0.3-0.4l0,0l-0.3,0.4
					h-0.7L264.2,50.8z M228,56.3c-0.5,0.4-1.3,0.6-2.2,0.6c-0.5,0-1,0-1.3-0.1v-4.7c0.4-0.1,1-0.1,1.5-0.1c1,0,1.5,0.2,2,0.5
					c0.5,0.4,0.9,1,0.9,1.8C228.7,55.2,228.4,55.9,228,56.3z M233.3,56.8l-0.3-1.3h-1.4l-0.3,1.3h-1.2l1.5-4.8h1.4l1.5,4.8H233.3z
					 M240.2,56.8H239L238,55c-0.3-0.5-0.6-1.2-0.9-1.7l0,0c0,0.6,0,1.3,0,2.1v1.5h-1v-4.8h1.3l1,1.8c0.3,0.5,0.5,1.1,0.7,1.7l0,0
					c-0.1-0.6-0.1-1.3-0.1-2v-1.4h1v4.6H240.2z M246.3,56.8h-1.1v-2h-1.8v2h-1.1V52h1.1v1.8h1.8V52h1.1V56.8z M253.5,56.8l-1.2-2.1
					l-0.4,0.5v1.6h-1.1V52h1.1v2.1l0,0c0.1-0.2,0.2-0.3,0.3-0.5l1.1-1.6h1.4l-1.6,2l1.7,2.8H253.5z M260.4,56.8h-1.1v-2h-1.8v2h-1.1
					V52h1.1v1.8h1.8V52h1.1V56.8z M264.5,56.9c-1.4,0-2.2-1.1-2.2-2.5c0-1.5,1-2.6,2.3-2.6c1.5,0,2.3,1.1,2.3,2.5
					C266.9,56,265.9,56.9,264.5,56.9z M269.9,56.8h-1.1V52h1.1V56.8z M275.6,56.9c-0.5,0-1.1-0.1-1.4-0.3l0.2-0.9
					c0.3,0.1,0.7,0.3,1.2,0.3c0.5,0,0.7-0.2,0.7-0.5s-0.2-0.4-0.9-0.6c-0.9-0.3-1.4-0.7-1.4-1.4c0-0.9,0.7-1.5,1.8-1.5
					c0.5,0,1,0.1,1.3,0.2l-0.2,0.9c-0.2-0.1-0.5-0.2-1-0.2s-0.7,0.2-0.7,0.4c0,0.3,0.3,0.4,0.9,0.6c0.9,0.3,1.3,0.7,1.3,1.5
					C277.5,56.2,276.9,56.9,275.6,56.9z M282.4,56.8h-3.1V52h3v0.9h-1.9v1h1.8v0.9h-1.8v1.2h2V56.8z M286.8,56.8
					c-0.1-0.1-0.2-0.5-0.3-1.2c-0.1-0.6-0.3-0.7-0.7-0.7h-0.3v1.9h-1.1V52c0.3-0.1,0.9-0.1,1.5-0.1c0.7,0,1.2,0.1,1.6,0.4
					c0.3,0.2,0.4,0.5,0.4,1.1c0,0.6-0.4,1.1-0.9,1.2l0,0c0.3,0.1,0.5,0.4,0.6,0.9c0.1,0.5,0.3,1.2,0.4,1.4H286.8z M292,56.8h-1.3
					l-1.6-4.8h1.2l0.6,2c0.2,0.5,0.3,1.2,0.4,1.7l0,0c0.1-0.5,0.3-1.2,0.4-1.7l0.6-2h1.2L292,56.8z M296.4,56.8h-1.1V52h1.1V56.8z
					 M300.9,56c0.3,0,0.7-0.1,1-0.1l0.1,0.9c-0.2,0.1-0.6,0.2-1.3,0.2c-1.7,0-2.6-1.1-2.6-2.5c0-1.6,1.2-2.6,2.7-2.6
					c0.5,0,1,0.1,1.2,0.2l-0.2,0.9c-0.2-0.1-0.5-0.2-1-0.2c-0.9,0-1.5,0.5-1.5,1.6C299.4,55.4,299.9,56,300.9,56z M307,56.8h-3.1V52
					h3v0.9h-1.9v1h1.8v0.9h-1.8v1.2h2V56.8z"/>
				<path id="XMLID_1317_" class="st0" d="M226,52.8c-0.2,0-0.4,0-0.5,0V56c0.1,0,0.2,0,0.4,0c1,0,1.6-0.5,1.6-1.7
					C227.5,53.3,227,52.8,226,52.8z"/>
				<path id="XMLID_1316_" class="st0" d="M264.5,52.8c-0.7,0-1.2,0.7-1.2,1.6c0,1,0.4,1.6,1.2,1.6c0.7,0,1.2-0.7,1.2-1.6
					S265.3,52.8,264.5,52.8z"/>
			</g>
			<path id="XMLID_1314_" class="st0" d="M286.6,38.5h-17v0.9h15.7C285.7,39.1,286.2,38.8,286.6,38.5"/>
			<path id="XMLID_1313_" class="st0" d="M276.9,33.9v-2.3h1.5c1.5,0,2.6,0.7,2.7,2.3h7.5v-0.1v-0.2v-0.3c-0.2-5.8-5.1-6.5-9.3-6.5
				H277h-7.4v7.1l0,0H276.9L276.9,33.9z"/>
			<path id="XMLID_1312_" class="st0" d="M288.3,35.3c0.1-0.3,0.1-0.6,0.1-1h-7.4c0,0.3-0.1,0.6-0.2,1H288.3z"/>
			<path id="XMLID_1311_" class="st0" d="M288.2,35.7h-7.6c-0.3,0.5-1,0.9-1.7,1h9C288.1,36.3,288.2,36,288.2,35.7"/>
			<path id="XMLID_1310_" class="st0" d="M287.7,37.1h-18.1v1H287C287.3,37.7,287.6,37.4,287.7,37.1"/>
		</g>
		<g id="XMLID_1300_">
			<g id="XMLID_1305_">
				<path id="XMLID_1306_" class="st0" d="M313.6,31.5c-1.4,0-2.5-1.1-2.5-2.5s1.1-2.5,2.5-2.5c1.4,0,2.5,1.1,2.5,2.5
					C316,30.5,314.9,31.5,313.6,31.5z M313.6,27c-1.2,0-2.1,1-2.1,2.1s1,2.1,2.1,2.1c1.2,0,2.1-1,2.1-2.1
					C315.7,27.9,314.7,27,313.6,27z"/>
			</g>
			<g id="XMLID_1301_">
				<path id="XMLID_1302_" class="st0" d="M314,30.4l-0.6-1l0,0v1h-0.6v-2.9h0.9c0.1,0,0.2,0,0.2,0c0.1,0,0.1,0,0.2,0
					c0.2,0,0.3,0.1,0.4,0.2c0.2,0.2,0.3,0.4,0.3,0.7c0,0.2-0.1,0.4-0.2,0.5c-0.1,0.2-0.3,0.3-0.5,0.3l0.7,1H314V30.4z M313.9,28.2
					c-0.1-0.1-0.2-0.1-0.3-0.1h-0.2v0.7h0.2c0.3,0,0.4-0.1,0.4-0.4C314.1,28.4,314,28.3,313.9,28.2z"/>
			</g>
		</g>
	</g>
</g>
</svg>
