<svg version="1.1" id="Layer_1" xmlns="http://www.w3.org/2000/svg" xmlns:xlink="http://www.w3.org/1999/xlink" viewBox="0 0 100 100">
<path fill="currentColor" d="M52.4,69.4l-0.1-13.5H36.6V43.5h15.6L52.3,30l18.6,19.5L52.4,69.4z M39.8,52.7h15.6l0.1,8.6l11-11.7L55.5,38
l-0.1,8.7H39.8V52.7z"></path>
<path fill="currentColor" d="M24.6,22.6 32.8,22.6 32.8,19 21,19 21,30.2 24.6,30.2z"></path>
<path fill="currentColor" d="M77.4,22.6 77.4,30.2 81,30.2 81,19 69.6,19 69.6,22.6z"></path>
<path fill="currentColor" d="M24.6,75.4 24.6,67 21,67 21,79 32.8,79 32.8,75.4z"></path>
<path fill="currentColor" d="M77.4,75.4 69.6,75.4 69.6,79 81,79 81,67 77.4,67z"></path>
</svg>