<?xml version="1.0" encoding="utf-8"?>
<!-- Generator: Adobe Illustrator 22.0.1, SVG Export Plug-In . SVG Version: 6.00 Build 0)  -->
<svg version="1.1" id="Capa_1" xmlns="http://www.w3.org/2000/svg" xmlns:xlink="http://www.w3.org/1999/xlink" x="0px" y="0px"
	 width="140px" height="140px" viewBox="0 0 140 140" style="enable-background:new 0 0 140 140;" xml:space="preserve">
<style type="text/css">
	.st0{fill:#FFFFFF;}
</style>
<g>
	<path class="st0" d="M114.5,92.9c-3.5,6.8-8.6,12.8-14.8,17.3c-0.9,0.7-2.2,0.5-2.8-0.4c-0.7-0.9-0.5-2.2,0.4-2.8
		c5.7-4.2,10.4-9.7,13.6-15.9c3.4-6.5,5.1-13.6,5.1-21c0-25.3-20.6-45.9-45.9-45.9S24.1,44.7,24.1,70s20.6,45.9,45.9,45.9
		c1.1,0,2,0.9,2,2s-0.9,2-2,2c-27.6,0-50-22.4-50-50s22.4-50,50-50s50,22.4,50,50C120,78,118.1,85.9,114.5,92.9z"/>
	<path class="st0" d="M57.2,93.2c-0.6-0.4-1-1-1-1.8V46.8c0-1.1,0.9-2,2-2c1.1,0,2,0.9,2,2v41.1l30.1-17.9L68.2,55.7
		c-0.9-0.6-1.2-1.9-0.6-2.8c0.6-0.9,1.9-1.2,2.8-0.6l24.9,16.1c0.6,0.4,0.9,1,0.9,1.7s-0.4,1.4-1,1.7l-36,21.4
		C58.6,93.6,57.8,93.6,57.2,93.2z"/>
</g>
</svg>
