<?xml version="1.0" encoding="utf-8"?>
<!-- Generator: Adobe Illustrator 23.0.0, SVG Export Plug-In . SVG Version: 6.00 Build 0)  -->
<svg version="1.1" id="Layer_1" xmlns="http://www.w3.org/2000/svg" xmlns:xlink="http://www.w3.org/1999/xlink" x="0px" y="0px"
	 width="300px" height="100px" viewBox="0 0 300 100" style="enable-background:new 0 0 300 100;" xml:space="preserve">
<style type="text/css">
	.st0{fill-rule:evenodd;clip-rule:evenodd;fill:#FFFFFF;}
	.st1{fill:#FFFFFF;}
</style>
<g>
	<g>
		<path class="st0" d="M216.6,70.1L217,72h-0.3l0-0.1c-0.2-0.3-0.3-0.5-0.4-0.6c-0.2-0.2-0.3-0.4-0.4-0.5c-0.4-0.4-0.9-0.5-1.5-0.5
			c-0.7,0-1.2,0.3-1.6,0.8c-0.2,0.2-0.3,0.5-0.4,0.8c-0.1,0.3-0.1,0.6-0.1,0.9c0,0.3,0,0.6,0.1,0.9c0.1,0.3,0.2,0.5,0.4,0.8
			c0.2,0.2,0.4,0.4,0.8,0.5c0.3,0.1,0.6,0.2,1,0.2c0.4,0,0.9-0.1,1.3-0.3c0.4-0.2,0.7-0.5,1-0.9l0.4,0.2c-0.3,0.5-0.7,0.8-1.2,1.1
			c-0.5,0.2-1,0.4-1.6,0.4c-0.9,0-1.7-0.3-2.3-0.8c-0.6-0.5-0.9-1.2-0.9-2.1c0-0.8,0.3-1.4,0.8-2c0.6-0.6,1.3-0.9,2.2-0.9
			c0.3,0,0.7,0.1,1,0.1c0.3,0.1,0.6,0.2,0.8,0.4l0.2-0.4H216.6z M221.9,72.8l1.5,1.8c0.3,0.3,0.6,0.5,1,0.6v0.2h-1.5l-2-2.6h-1.3
			v1.3v0.2c0,0.3,0,0.5,0.1,0.6c0.1,0.2,0.3,0.2,0.6,0.2h0.2v0.2h-2.7v-0.2l0.1,0c0.2,0,0.4,0,0.4-0.1c0.1,0,0.2-0.1,0.2-0.2
			c0-0.1,0.1-0.2,0.1-0.2c0-0.1,0-0.2,0-0.3v-3.3c0-0.3-0.1-0.5-0.2-0.6c-0.1-0.1-0.3-0.1-0.5-0.1h-0.2v-0.3h3.6
			c0.6,0,1.1,0.1,1.5,0.3c0.5,0.2,0.7,0.6,0.7,1.1c0,0.4-0.2,0.7-0.5,1C222.8,72.7,222.4,72.8,221.9,72.8 M219.7,72.6h1.4
			c0.3,0,0.5,0,0.7,0c0.2,0,0.3-0.1,0.5-0.2c0.4-0.2,0.5-0.5,0.5-0.9c0-0.4-0.2-0.7-0.6-0.9c-0.3-0.1-0.7-0.2-1.2-0.2
			c-0.2,0-0.4,0-0.6,0c-0.2,0-0.4,0.1-0.5,0.1c-0.1,0.1-0.2,0.1-0.2,0.2c0,0.1,0,0.2,0,0.3V72.6z M229.6,70.1l0.6,1.4l-0.3,0.1
			c-0.4-0.4-0.8-0.7-1.2-0.9c-0.4-0.2-0.9-0.3-1.5-0.3c-0.2,0-0.3,0-0.5,0c-0.2,0-0.3,0.1-0.4,0.1c-0.1,0.1-0.1,0.1-0.2,0.2
			c0,0.1-0.1,0.2-0.1,0.4v1.2h0.6c0.4,0,0.8-0.1,0.9-0.2c0.1-0.1,0.2-0.4,0.3-0.8h0.3v2.4h-0.3c0-0.3-0.1-0.5-0.2-0.7
			c-0.1-0.2-0.2-0.2-0.4-0.3c-0.2,0-0.3-0.1-0.6-0.1h-0.6v1.6c0,0.1,0,0.2,0,0.3c0,0.1,0,0.2,0.1,0.2c0.1,0.1,0.2,0.2,0.4,0.2
			c0.2,0,0.3,0.1,0.5,0.1c0.7,0,1.2-0.1,1.7-0.4c0.4-0.2,0.9-0.6,1.3-1.1l0.3,0.1l-0.8,1.7h-5.3v-0.2l0.1,0c0.2,0,0.3,0,0.4-0.1
			c0.1,0,0.2-0.1,0.2-0.2c0-0.1,0.1-0.1,0.1-0.2c0-0.1,0-0.2,0-0.3v-3.3c0-0.3,0-0.4-0.1-0.6c-0.1-0.2-0.3-0.2-0.6-0.2h-0.1v-0.3
			H229.6z M236.1,70.1l0.6,1.4l-0.3,0.1c-0.4-0.4-0.8-0.7-1.2-0.9c-0.4-0.2-0.9-0.3-1.5-0.3c-0.2,0-0.4,0-0.5,0
			c-0.1,0-0.3,0.1-0.4,0.1c-0.1,0.1-0.1,0.1-0.2,0.2c0,0.1-0.1,0.2-0.1,0.4v1.2h0.6c0.4,0,0.7-0.1,0.9-0.2c0.1-0.1,0.2-0.4,0.3-0.8
			h0.3v2.4h-0.3c0-0.3-0.1-0.5-0.2-0.7c-0.1-0.2-0.2-0.2-0.4-0.3c-0.1,0-0.3-0.1-0.6-0.1h-0.6v1.6c0,0.1,0,0.2,0,0.3
			c0,0.1,0.1,0.2,0.1,0.2c0.1,0.1,0.2,0.2,0.4,0.2c0.2,0,0.3,0.1,0.5,0.1c0.7,0,1.3-0.1,1.7-0.4c0.4-0.2,0.9-0.6,1.3-1.1l0.3,0.1
			l-0.8,1.7H231v-0.2l0.1,0c0.2,0,0.3,0,0.4-0.1c0.1,0,0.2-0.1,0.2-0.2c0-0.1,0.1-0.1,0.1-0.2c0-0.1,0-0.2,0-0.3v-3.3
			c0-0.3,0-0.4-0.1-0.6c-0.1-0.2-0.3-0.2-0.6-0.2H231v-0.3H236.1z M237.5,75.5v-0.2l0.1,0c0.2,0,0.3,0,0.4-0.1
			c0.1,0,0.2-0.1,0.3-0.2c0-0.1,0.1-0.1,0.1-0.2c0-0.1,0-0.2,0-0.3v-3.4c0-0.2,0-0.4-0.1-0.5c-0.1-0.2-0.3-0.2-0.6-0.2h-0.1v-0.3
			h2.7c0.7,0,1.3,0,1.7,0.1c0.4,0.1,0.7,0.2,0.9,0.4c0.4,0.2,0.7,0.6,0.9,1c0.2,0.4,0.3,0.8,0.3,1.3c0,0.4-0.1,0.8-0.3,1.2
			c-0.2,0.4-0.5,0.7-0.8,0.9c-0.3,0.2-0.6,0.3-1,0.4c-0.4,0.1-1,0.1-1.7,0.1H237.5z M239.2,71.2v3.1c0,0.1,0,0.2,0,0.4
			c0,0.1,0.1,0.2,0.1,0.3c0,0,0.2,0.1,0.3,0.1c0.2,0,0.4,0,0.6,0c0.8,0,1.5-0.2,1.9-0.6c0.4-0.4,0.7-1,0.7-1.8c0-0.3,0-0.7-0.1-0.9
			c-0.1-0.3-0.3-0.6-0.5-0.8c-0.2-0.2-0.5-0.4-0.9-0.5c-0.3-0.1-0.7-0.1-1.1-0.1c-0.2,0-0.4,0-0.6,0c-0.2,0-0.3,0.1-0.4,0.2
			c0,0.1-0.1,0.2-0.1,0.3C239.2,71,239.2,71.1,239.2,71.2 M253.1,70.1l0.5,1.7l-0.3,0.1c-0.3-0.4-0.6-0.8-1-1
			c-0.4-0.3-0.9-0.5-1.4-0.5c-0.7,0-1.2,0.3-1.6,0.8c-0.3,0.4-0.4,1-0.4,1.6c0,0.3,0,0.6,0.1,0.9c0.1,0.3,0.2,0.5,0.3,0.8
			c0.2,0.3,0.4,0.5,0.7,0.6c0.3,0.2,0.6,0.2,0.9,0.2c0.5,0,0.9-0.1,1.2-0.3c0.4-0.2,0.6-0.6,0.6-1c0-0.3-0.1-0.5-0.2-0.6
			c-0.1-0.1-0.4-0.2-0.7-0.2v-0.2h2.4v0.2h-0.1c-0.1,0-0.2,0-0.3,0.1c-0.1,0.1-0.2,0.1-0.3,0.2c0,0.1-0.1,0.2-0.1,0.3
			c0,0.1,0,0.2,0,0.3v0.2v1.3h-0.4l-0.3-0.6c-0.6,0.5-1.3,0.7-2,0.7c-0.9,0-1.7-0.3-2.3-0.8c-0.6-0.5-0.9-1.2-0.9-2
			c0-0.4,0.1-0.7,0.2-1.1c0.1-0.3,0.3-0.6,0.6-0.9c0.3-0.3,0.6-0.5,1-0.6c0.4-0.2,0.8-0.3,1.2-0.3c0.7,0,1.3,0.2,1.8,0.5l0.2-0.4
			H253.1z M259.1,72.8l1.5,1.8c0.3,0.3,0.6,0.5,1,0.6v0.2h-1.5l-2-2.6h-1.3v1.3v0.2c0,0.3,0,0.5,0.1,0.6c0.1,0.2,0.3,0.2,0.6,0.2
			h0.2v0.2H255v-0.2l0.1,0c0.2,0,0.4,0,0.4-0.1c0.1,0,0.2-0.1,0.2-0.2c0-0.1,0.1-0.2,0.1-0.2c0-0.1,0-0.2,0-0.3v-3.3
			c0-0.3-0.1-0.5-0.2-0.6c-0.1-0.1-0.3-0.1-0.5-0.1H255v-0.3h3.6c0.6,0,1.1,0.1,1.5,0.3c0.5,0.2,0.7,0.6,0.7,1.1
			c0,0.4-0.2,0.7-0.5,1C259.9,72.7,259.6,72.8,259.1,72.8 M256.8,72.6h1.4c0.2,0,0.5,0,0.6,0c0.2,0,0.3-0.1,0.5-0.2
			c0.4-0.2,0.5-0.5,0.5-0.9c0-0.4-0.2-0.7-0.5-0.9c-0.3-0.1-0.7-0.2-1.2-0.2c-0.2,0-0.4,0-0.6,0c-0.2,0-0.4,0.1-0.5,0.1
			c-0.1,0.1-0.2,0.1-0.2,0.2c0,0.1,0,0.2,0,0.3V72.6z M264.6,69.9c-0.8,0-1.6,0.3-2.1,0.8c-0.6,0.6-0.9,1.2-0.9,2
			c0,0.8,0.3,1.5,0.9,2c0.6,0.6,1.3,0.8,2.1,0.8c0.8,0,1.5-0.3,2.1-0.8c0.6-0.5,0.9-1.2,0.9-2c0-0.8-0.3-1.5-0.8-2.1
			C266.1,70.2,265.4,69.9,264.6,69.9 M264.5,70.3L264.5,70.3c0.7,0,1.2,0.2,1.5,0.7c0.3,0.5,0.5,1,0.5,1.8c0,0.7-0.1,1.2-0.5,1.6
			c-0.4,0.5-0.9,0.7-1.5,0.7c-0.7,0-1.2-0.3-1.5-0.8c-0.3-0.4-0.5-1-0.5-1.6c0-0.8,0.2-1.4,0.5-1.8
			C263.4,70.6,263.9,70.3,264.5,70.3 M272.1,70.1h2v0.2h-0.1c-0.1,0-0.3,0-0.4,0c-0.1,0-0.2,0.1-0.2,0.2c0,0.1-0.1,0.2-0.1,0.3
			c0,0.1,0,0.3,0,0.5v2.5c0,0.4,0,0.6-0.1,0.8c-0.1,0.2-0.2,0.5-0.5,0.6c-0.2,0.2-0.5,0.3-0.8,0.3c-0.2,0.1-0.5,0.1-0.9,0.1
			c-0.3,0-0.6,0-0.8-0.1c-0.3-0.1-0.6-0.2-0.8-0.3c-0.3-0.2-0.5-0.4-0.6-0.6c-0.1-0.2-0.1-0.5-0.1-0.8v-2.6c0-0.3,0-0.5-0.1-0.6
			c-0.1-0.2-0.3-0.3-0.5-0.3h-0.1v-0.2h2.4v0.2l-0.1,0c-0.2,0-0.3,0-0.4,0c-0.1,0-0.2,0.1-0.2,0.2c0,0,0,0.1-0.1,0.2
			c0,0.1,0,0.2,0,0.3v0.2v2v0.5c0,0.2,0,0.3,0,0.5c0,0.2,0.1,0.3,0.2,0.4c0.1,0.2,0.3,0.4,0.6,0.4c0.2,0.1,0.5,0.1,0.8,0.1
			c0.3,0,0.6,0,0.8-0.1c0.3-0.1,0.5-0.2,0.6-0.4c0.1-0.1,0.2-0.3,0.2-0.5c0-0.2,0-0.5,0-0.7v-2.2c0-0.3,0-0.5-0.1-0.6
			c-0.1-0.2-0.3-0.2-0.6-0.2h-0.2V70.1z M276.4,73.1v1.1v0.2c0,0.2,0,0.4,0.1,0.5c0.1,0.1,0.1,0.2,0.3,0.2c0.1,0,0.3,0.1,0.4,0.1
			h0.2v0.3h-2.6v-0.2l0.1,0c0.2,0,0.3,0,0.4-0.1c0.1,0,0.2-0.1,0.2-0.2c0-0.1,0.1-0.2,0.1-0.3c0-0.1,0-0.3,0-0.4v-3.1
			c0-0.3,0-0.4-0.1-0.5c-0.1-0.2-0.3-0.2-0.6-0.2h-0.1v-0.3h2.9c0.3,0,0.6,0,0.8,0.1c0.2,0,0.5,0.1,0.7,0.2c0.5,0.3,0.8,0.7,0.8,1.2
			c0,0.2-0.1,0.5-0.2,0.7c-0.1,0.2-0.3,0.4-0.5,0.5c-0.2,0.1-0.5,0.2-0.8,0.3c-0.2,0-0.5,0.1-0.8,0.1H276.4z M276.4,72.8h1.1
			c0.3,0,0.5,0,0.6,0c0.2,0,0.4-0.1,0.5-0.3c0.1-0.1,0.2-0.3,0.3-0.4c0-0.1,0.1-0.3,0.1-0.5c0-0.2,0-0.3-0.1-0.5
			c-0.1-0.2-0.2-0.3-0.3-0.4c-0.1-0.1-0.3-0.2-0.5-0.2c-0.2,0-0.4-0.1-0.6-0.1c-0.2,0-0.4,0-0.6,0c-0.2,0-0.3,0.1-0.4,0.1
			c0,0-0.1,0.1-0.1,0.2c0,0.1,0,0.2,0,0.2V71V72.8z"/>
		<path class="st0" d="M230.1,19.4c1.3,0.3,2,1.5,1.6,2.6c-0.3,1.1-1.7,1.8-2.9,1.5c-3.2-0.8-5.5,0-6.8,1.6c0.7,0.1,1.5,0.2,2.2,0.4
			c0.4,0.1,0.8,0.2,1.2,0.3c3.1,1,5.7,2.6,7.4,4.6c1.7,2.1,2.4,4.5,1.5,7c-0.6,1.9-1.7,3.4-3.2,4.3c-1.5,0.9-3.4,1.2-5.6,0.7
			c-6-1.4-9.2-6-9.8-10.7c-0.1-0.6-0.1-1.3-0.1-1.9c-1.3,0.4-2.6,1-3.8,1.7c-3.5,2.1-6.2,5.2-7.5,8.6c-0.1,0.3-0.3,0.7-0.4,1v0
			c-1.1,3.8-0.7,7.7,1.4,11c1.9,3,5.1,5.4,9.6,6.6c2.9,0.8,5.7,0.5,8-0.4c1.8-0.7,3.4-1.8,4.7-3.1c1.3-1.3,2.2-2.8,2.7-4.3
			c0.6-1.6,0.6-3.2,0-4.4c-0.5-1.1,0-2.3,1.2-2.8c1.2-0.5,2.6,0,3.1,1c0.3,0.7,0.6,1.4,0.7,2.1c1.3-1.3,3.1-2.4,5.4-3.3
			c0.3-0.1,0.5-0.2,0.8-0.2c0-0.1,0-0.2,0-0.2c0.4-4.2,3.8-8,7.5-9.9c1.3-0.7,2.6-1.2,4-1.4c1.5-0.3,2.9-0.1,4.2,0.4
			c1.7,0.7,2.9,2.2,3.2,4.5c0,0.3,0.1,0.7,0,1v0c-0.1,1.6-0.8,3.2-2.2,4.5v0c-1.3,1.3-3.3,2.2-6,2.5c-0.6,0.1-1.4,0.1-2.2,0.1
			c-1.3,0-2.3-1-2.3-2.2c0-1.1,1.1-2,2.5-2c0.5,0,1,0,1.5,0c1.4-0.1,2.4-0.6,3.1-1.2l0,0c0.6-0.5,0.9-1.2,0.9-1.8c0-0.1,0-0.3,0-0.4
			c-0.1-0.7-0.3-1.1-0.6-1.2c-0.3-0.1-0.7-0.1-1.2,0l0,0c-0.7,0.1-1.5,0.4-2.4,0.9c-2.6,1.4-5,3.9-5.2,6.7c-0.2,1.7,0.3,3.3,1.2,4.5
			c0.5,0.7,1.2,1.3,1.9,1.6c0.6,0.3,1.3,0.4,2,0.2c0.9-0.2,2-0.8,3-1.9c0.5-0.5,1.3-0.8,2-0.7c1.3-2.9,3.9-5.4,6.7-6.9
			c1.3-0.7,2.6-1.2,3.9-1.4c1.5-0.2,2.9-0.1,4.2,0.4c1.7,0.7,2.9,2.2,3.2,4.4c0,0.3,0.1,0.7,0,1v0c-0.1,1.6-0.8,3.2-2.2,4.5v0
			c-1.4,1.3-3.3,2.2-6,2.5c-0.7,0.1-1.4,0.1-2.2,0.1c-1.3,0-2.3-1-2.3-2.2c0-1.1,1.1-2,2.4-2c0.5,0,1,0,1.5,0
			c1.4-0.2,2.4-0.6,3.1-1.2v0c0.6-0.5,0.9-1.2,0.9-1.8c0-0.1,0-0.2,0-0.4c-0.1-0.7-0.3-1.1-0.6-1.2c-0.3-0.1-0.7-0.1-1.2,0h0
			c-0.7,0.1-1.5,0.4-2.4,0.9c-2.6,1.4-5,3.9-5.2,6.7c-0.2,1.7,0.3,3.3,1.2,4.5c0.5,0.7,1.2,1.3,1.9,1.6c0.6,0.3,1.3,0.4,2,0.2
			c0.9-0.2,1.9-0.8,3-1.9c0.9-0.9,2.3-1,3.3-0.2c1,0.8,1.1,2.1,0.3,3c-1.8,1.8-3.7,2.8-5.5,3.2c-1.9,0.4-3.7,0.1-5.2-0.6
			c-1.5-0.7-2.8-1.8-3.7-3.1c-1-1.3-1.6-3-1.9-4.7c-1,0.7-2.1,1.1-3.2,1.3c-1.9,0.4-3.6,0.1-5.2-0.6c-1.5-0.7-2.8-1.7-3.7-3.1
			c-0.6-0.8-1.1-1.7-1.4-2.6c-5.2,2.3-5.9,6.5-6.9,13c-0.1,0.9-0.3,1.9-0.4,2.4c-0.2,1.1-1.4,1.9-2.7,1.8c-1.3-0.2-2.2-1.2-2-2.4
			c0.2-1.1,0.3-1.8,0.4-2.4c0.1-0.6,0.2-1.2,0.3-1.7c-1.6,1.6-3.6,2.9-5.9,3.8c-3.3,1.3-7.2,1.7-11.3,0.6c-5.8-1.5-9.9-4.7-12.4-8.6
			c-2.6-4.2-3.2-9.3-1.8-14.1l0,0c0.1-0.4,0.3-0.9,0.5-1.3c1.7-4.2,5.1-8.2,9.3-10.7c2.3-1.4,4.8-2.3,7.4-2.8c0.4-1,1-1.8,1.6-2.6
			C220.6,19.7,224.7,18.1,230.1,19.4 M285.3,51.4c-0.3,0-0.6-0.1-0.9-0.1c-0.5,0-0.9,0-1.3,0c-0.6,0-1.1,0.2-1.6,0.4
			c-1.4,0.6-2.5,1.9-3.2,3.3c-0.8,1.5-1.2,3.2-1,4.7c0.1,0.7,0.3,1.3,0.6,1.9c0.6,0.9,1.4,1.7,2.3,2.1c0.4,0.2,0.9,0.3,1.3,0.3
			c0.4,0,0.7-0.1,1-0.2c0.5-0.2,1-0.7,1.4-1.5c0.2-0.4,0.5-0.6,0.9-0.8c-0.3-2.3-0.2-4.8,0-7.5C285,53.2,285.1,52.3,285.3,51.4
			 M286.2,66.7c0.3,0.6,0.6,1.1,0.9,1.7c0.7,1,2.1,1.3,3.2,0.7c1.1-0.6,1.5-1.9,0.8-2.9c-1.7-2.5-2.1-6.8-1.6-11.7
			c0.6-6.1,2.6-13,5.1-18.9c0.5-1.1-0.2-2.3-1.4-2.7c-1.2-0.4-2.6,0.1-3.1,1.2c-1.7,4.1-3.3,8.7-4.3,13.2c-0.5-0.1-0.9-0.1-1.3-0.1
			c-0.7,0-1.4,0-2,0c-1.2,0.1-2.3,0.4-3.3,0.9c-2.4,1.1-4.2,3-5.3,5.3c-1.1,2.1-1.6,4.6-1.4,6.9c0.1,1.2,0.5,2.4,1.1,3.4
			c1,1.7,2.6,3.1,4.4,3.9c1,0.5,2.1,0.7,3.2,0.8c1.2,0,2.3-0.2,3.5-0.7C285.3,67.3,285.8,67,286.2,66.7 M220.4,29.1
			c-0.1,0.7-0.1,1.4,0,2.1c0.4,3.2,2.5,6.2,6.3,7.1c0.8,0.2,1.4,0.1,1.8-0.1c0.6-0.3,1-1.1,1.3-2.1c0.4-1.1,0-2.3-0.8-3.4
			c-1.1-1.3-2.9-2.4-5.1-3.1c-0.3-0.1-0.6-0.2-0.9-0.2h0C222.1,29.3,221.2,29.1,220.4,29.1"/>
	</g>
	<path class="st1" d="M68.7,49.7L54,31.2l0,0l0,0h-9.4l0,0l0,0v30.5H54V43.2l14.6,18.5h9.5V31.2h-9.5V49.7z"/>
	<path class="st1" d="M17.5,31.2L3.2,61.7h11.6L22,33.9l7.3,27.8h11.5L26.6,31.2H17.5z"/>
	<path class="st1" d="M100.2,62.4c6.2,0,11.6-1.4,14.9-3.4V43.8h-14.4v6.1h6.1v4.2c-1.5,0.8-3.6,1-5.4,1c-5.1,0-9.4-3-9.4-8.7
		c0-5.6,4.2-8.8,10-8.8c4.8,0,8.5,2,9.4,2.3l2.8-6.4c-3.7-2.1-8.6-3.1-13.5-3.1c-9.2,0-17.8,6.2-17.8,16
		C82.9,56.9,90.5,62.4,100.2,62.4z"/>
	<path class="st1" d="M158.3,31.2l14.2,30.5H161l-7.3-27.8l-7.2,27.8h-11.6l14.3-30.5H158.3z"/>
	<path class="st1" d="M121.6,61.7h9.5V31.2h-9.5v7.7V61.7z"/>
</g>
</svg>
