<?xml version="1.0" encoding="utf-8"?>
<!-- Generator: Adobe Illustrator 21.1.0, SVG Export Plug-In . SVG Version: 6.00 Build 0)  -->
<svg version="1.1" id="Layer_1" xmlns="http://www.w3.org/2000/svg" xmlns:xlink="http://www.w3.org/1999/xlink" x="0px" y="0px"
	 width="30px" height="30px" viewBox="0 0 30 30" style="enable-background:new 0 0 30 30;" xml:space="preserve">
<style type="text/css">
	.st0{fill:#FFFFFF;}
</style>
<g>
	<polygon class="st0" points="6.5,13.1 5.9,12.5 5.9,11.7 6.5,11 9.6,11 5,6.5 5,5.6 5.6,5 6.5,5 11,9.6 11,6.5 11.7,5.9 12.5,5.9 
		13.1,6.5 13.1,12.5 12.5,13.1 	"/>
	<polygon class="st0" points="17.5,13.1 16.9,12.5 16.9,6.5 17.5,5.9 18.3,5.9 19,6.5 19,9.6 23.5,5 24.4,5 25,5.6 25,6.5 20.4,11 
		23.5,11 24.1,11.7 24.1,12.5 23.5,13.1 	"/>
	<polygon class="st0" points="5,24.4 5,23.5 9.6,19 6.5,19 5.9,18.3 5.9,17.5 6.5,16.9 12.5,16.9 13.1,17.5 13.1,23.5 12.5,24.1 
		11.7,24.1 11,23.5 11,20.4 6.5,25 5.6,25 	"/>
	<polygon class="st0" points="19,20.4 19,23.5 18.3,24.1 17.5,24.1 16.9,23.5 16.9,17.5 17.5,16.9 23.5,16.9 24.1,17.5 24.1,18.3 
		23.5,19 20.4,19 25,23.5 25,24.4 24.4,25 23.5,25 	"/>
</g>
</svg>
