<?xml version="1.0" encoding="utf-8"?>
<!-- Generator: Adobe Illustrator 21.1.0, SVG Export Plug-In . SVG Version: 6.00 Build 0)  -->
<svg version="1.1" id="Layer_1" xmlns="http://www.w3.org/2000/svg" xmlns:xlink="http://www.w3.org/1999/xlink" x="0px" y="0px"
	 width="30px" height="30px" viewBox="0 0 30 30" style="enable-background:new 0 0 30 30;" xml:space="preserve">
<style type="text/css">
	.st0{fill:#FFFFFF;}
</style>
<g>
	<polygon class="st0" points="11.5,13 7,8.5 7,11.5 6.4,12.1 5.6,12.1 5,11.5 5,5.6 5.6,5 11.5,5 12.1,5.6 12.1,6.4 11.5,7 8.5,7 
		13,11.5 13,12.4 12.4,13 	"/>
	<polygon class="st0" points="17.6,13 17,12.4 17,11.5 21.5,7 18.5,7 17.9,6.4 17.9,5.6 18.5,5 24.4,5 25,5.6 25,11.5 24.4,12.1 
		23.6,12.1 23,11.5 23,8.5 18.5,13 	"/>
	<polygon class="st0" points="5.6,25 5,24.4 5,18.5 5.6,17.9 6.4,17.9 7,18.5 7,21.5 11.5,17 12.4,17 13,17.6 13,18.5 8.5,23 
		11.5,23 12.1,23.6 12.1,24.4 11.5,25 	"/>
	<polygon class="st0" points="18.5,25 17.9,24.4 17.9,23.6 18.5,23 21.5,23 17,18.5 17,17.6 17.6,17 18.5,17 23,21.5 23,18.5 
		23.6,17.9 24.4,17.9 25,18.5 25,24.4 24.4,25 	"/>
</g>
</svg>
