<?xml version="1.0" encoding="utf-8"?>
<!-- Generator: Adobe Illustrator 23.0.0, SVG Export Plug-In . SVG Version: 6.00 Build 0)  -->
<svg version="1.1" id="Layer_1" xmlns="http://www.w3.org/2000/svg" xmlns:xlink="http://www.w3.org/1999/xlink" x="0px" y="0px"
	 width="300px" height="70px" viewBox="0 0 300 70" style="enable-background:new 0 0 300 70;" xml:space="preserve">
<style type="text/css">
	.st0{fill:#FFFFFF;}
</style>
<path class="st0" d="M186.4,6.6c1.2,1,2.1,2.3,2.2,3.7c0.1,0.6,0.1,1.3,0.1,2.6v22.4c0,1.3,0,2.1-0.1,2.6c-0.2,1.4-1.1,2.7-2.2,3.7
	h9.2c-1.3-1.1-2.2-2.4-2.3-3.9c-0.1-0.5-0.1-1.3-0.1-2.4V12.9c0-1.1,0-1.8,0.1-2.4c0.1-1.5,1-2.9,2.3-3.9H186.4z"/>
<path class="st0" d="M47.2,6.6c1.2,1,2.1,2.3,2.2,3.7c0.1,0.6,0.1,1.3,0.1,2.6v22.4c0,1.3,0,2.1-0.1,2.6c-0.2,1.4-1,2.7-2.2,3.7h9.2
	c-1.3-1.1-2.2-2.4-2.3-3.9c-0.1-0.5-0.1-1.3-0.1-2.4V12.9c0-1.1,0-1.8,0.1-2.4c0.1-1.5,1-2.9,2.3-3.9H47.2z"/>
<path class="st0" d="M77.9,24c0,13.4,11,18.4,18,18.4c3.5,0,6.7-1.4,9.1-2.5c1.2-0.5,2.4-1.1,3-1.1h0.7v-4.6v-2
	c0-1.5,0.8-2.7,1.7-3.8h-8.3c1.1,1,2.1,2,2.3,3.4c0,0,0,0,0,0c0,0.1,0,0.1,0,0.2c0,0,0,0.1,0,0.2v0c0,0.5,0,1.1,0,2v2.1l-0.3,0.2
	c-1.5,1.1-4.2,3-8.7,3c-7.5,0-12.7-6.5-12.7-15.8l0,0c0-0.1,0-0.1,0-0.2c0,0,0-0.1,0-0.1h0c0-8.6,5.6-14.8,13.3-14.8
	c2.2,0,3.8,0.4,4.9,1c0.5,0.3,0.9,0.6,1.3,1c1.3,1.2,2.3,3,2.7,5.1l0.1-0.3l2.6-8.1h-1c-0.9,0-2.2-0.3-3.7-0.6c-2.1-0.5-4.4-1-6.8-1
	C85.7,5.9,77.9,13.7,77.9,24"/>
<path class="st0" d="M12.1,6.6c-2.9,1.3-4.9,4-4.9,7.3c0.1,4.1,3.9,6.8,7.5,9.5c1,0.7,2.1,1.5,3,2.3c3,2.4,4.4,4.9,4.4,7.5v0.1v0.1
	c0,2.9-2.1,4.7-4.4,5.5c-1.1,0.4-2.2,0.6-3.1,0.6c-1.2,0-2.3-0.2-3.2-0.6c-1-0.4-1.8-0.9-2.5-1.5c0,0,0,0,0,0c0,0,0,0-0.1-0.1
	c-2.1-1.8-3.7-3.9-4.2-4.9V39L5,39.2c0.1,0.1,0.2,0.1,0.4,0.3C6.2,40,7.7,41,9.8,41.6c1.4,0.4,3,0.7,4.9,0.7c1.6,0,3.1-0.3,4.4-0.7
	c1.7-0.6,3.1-1.6,4.2-2.8C25,37,26,34.6,26,32.3c0-3.2-1.1-6.1-3.4-8.6c-1.6-1.8-3.6-3.1-5.5-4.4c-3.1-2.1-5.9-3.9-5.9-6.7v0
	c0-0.2,0-0.4,0.1-0.6c0.4-2,2.5-3.3,4.5-3.3c1,0,1.9,0.2,2.7,0.4c0,0,0,0,0.1,0c0,0,0,0,0,0c1.6,0.6,3.1,1.9,4.6,3.4v-5L21.6,7
	c-0.5-0.1-1-0.3-1.5-0.4c-1.4-0.4-2.9-0.7-4.3-0.7C14.5,5.9,13.2,6.1,12.1,6.6"/>
<path class="st0" d="M271,6.6c1.2,1,2,2.3,2.1,3.8c0.1,0.6,0.1,1.3,0.1,2.5v22.4c0,2.5,0,3.5-2.1,5l-2.1,1.4h22.6l3.6-9.9l0,0
	c-1.5,1.8-3.2,3.3-4.8,4.5c-0.1,0.1-0.2,0.1-0.3,0.2c-0.1,0.1-0.2,0.1-0.2,0.2c-1.6,1-3.9,1.9-7.6,1.9c-4.3,0-4.5-1.1-4.5-4.7V12.9
	c0-1.2,0-1.9,0.1-2.5c0.1-1.5,1-2.8,2.3-3.8H271z"/>
<path class="st0" d="M157.1,6.6L157.1,6.6c0.8,0.7,1.5,1.3,1.9,2.2c0.1,0.2,0.2,0.5,0.2,0.7c0,0.1,0,0.1,0,0.2c0,0.2,0,0.4,0.1,0.7
	c0,0.4,0,0.8,0,1.3v20.7L136.6,6.6H136h-0.6h-8.1l1.5,0.7c3.2,1.5,4.8,2.9,6.1,4.6v0.4v0.5v23.7c0,0.5,0,1,0,1.3
	c0,0.3,0,0.5-0.1,0.7c0,0.3-0.1,0.6-0.3,0.9c-0.4,0.9-1,1.5-1.8,2.2l0,0h7.7c-0.9-0.7-1.6-1.4-1.9-2.3c-0.1-0.2-0.1-0.4-0.2-0.7
	c0-0.2-0.1-0.5-0.1-0.9c0-0.3,0-0.7,0-1.2V19.2v-3.3v-0.7l24.3,27.5v-31c0-0.5,0-0.9,0-1.2c0-0.4,0.1-0.7,0.1-1
	c0.1-0.3,0.1-0.5,0.2-0.7c0.4-0.9,1.1-1.5,1.9-2.2H157.1z"/>
<g>
	<path class="st0" d="M215.1,41.6c1.5-1.3,2.9-3.2,4.1-5.8l0.5-1v-0.1l0.2-0.6l1.9-4.6L224,24c0.5-1.2,1-2.7,1.7-4.6
		c2.1-5.7,3.2-9.3,3.2-10.6c0-0.8-0.3-1.6-0.9-2.3c0-0.1-0.1-0.2-0.3-0.4h6.1l8,18.9l3.8,8.5c1.8,4,3.8,6.7,6,8.1h-10
		c0.2-0.7,0.4-1.4,0.4-2c0-0.9-0.3-2.2-0.9-3.8c-0.1-0.2-0.2-0.5-0.3-0.9l-0.1-0.2l-0.2-0.4l-3.3-7.8h-11l-3.1,8.5
		c0,0.2-0.1,0.6-0.3,1c-0.2,1-0.4,1.8-0.4,2.5c0,1.2,0.4,2.3,1.2,3.2H215.1z M227,23.8h9.1l-4.9-11.7L227,23.8z"/>
</g>
<path class="st0" d="M81.1,57.4v-0.3h2.3l2.8,6.8l2.8-6.8h2.3v0.3c-0.4,0-0.7,0.1-0.9,0.3c-0.2,0.2-0.2,0.5-0.2,1v5.5
	c0,0.6,0.1,1,0.2,1.2c0.1,0.2,0.5,0.4,1,0.4V66h-3.4v-0.3c0.5,0,0.8-0.1,0.9-0.4c0.1-0.2,0.2-0.6,0.2-1.1v-5.7h0l-3,7.5h-0.2l-3-7.2
	v5c0,0.8,0.1,1.3,0.2,1.5c0.1,0.3,0.5,0.5,1,0.5V66h-2.8v-0.3c0.5,0,0.8-0.2,1-0.4c0.1-0.2,0.1-0.6,0.1-1.4v-4.9c0-0.6,0-1-0.1-1.2
	C81.9,57.5,81.6,57.4,81.1,57.4z"/>
<path class="st0" d="M99.3,56.9c1.2,0,2.2,0.4,3,1.3c0.8,0.9,1.2,2,1.2,3.4c0,1.3-0.4,2.4-1.2,3.3c-0.8,0.9-1.8,1.3-2.9,1.3
	c-1.2,0-2.2-0.4-3-1.3c-0.8-0.9-1.2-1.9-1.2-3.3c0-1.4,0.4-2.5,1.2-3.4C97.1,57.4,98.1,56.9,99.3,56.9z M99.3,65.7
	c1,0,1.7-0.4,2.2-1.3c0.4-0.7,0.6-1.7,0.6-2.9c0-1.2-0.2-2.1-0.6-2.8c-0.5-0.8-1.2-1.2-2.1-1.2c-0.9,0-1.6,0.4-2.1,1.2
	c-0.4,0.7-0.6,1.7-0.6,2.8c0,1.2,0.2,2.2,0.6,2.9C97.6,65.3,98.3,65.7,99.3,65.7z"/>
<path class="st0" d="M107.3,66v-0.3c0.8,0,1.2-0.3,1.2-1V59c0-0.7-0.1-1.2-0.2-1.4c-0.2-0.2-0.5-0.3-0.9-0.3v-0.3h3.9
	c1.3,0,2.3,0.3,3.1,0.9c1,0.8,1.4,1.9,1.4,3.6c0,1.6-0.6,2.8-1.7,3.5c-0.8,0.6-1.8,0.9-2.9,0.9H107.3z M109.7,59.1v5.5
	c0,0.4,0,0.6,0.1,0.7c0.1,0.1,0.3,0.2,0.7,0.2c1.2,0,2.1-0.3,2.8-1c0.7-0.7,1.1-1.7,1.1-3c0-1.2-0.3-2.2-1-2.9s-1.5-1.1-2.6-1.1
	c-0.6,0-0.9,0.1-1,0.3C109.8,58,109.7,58.4,109.7,59.1z"/>
<path class="st0" d="M119.8,57.4v-0.3h6.7l0.1,1.9h-0.2c-0.1-0.5-0.2-0.9-0.5-1.1c-0.2-0.2-0.6-0.3-1.1-0.3h-2.2
	c-0.2,0-0.4,0-0.4,0.1c0,0.1-0.1,0.4-0.1,0.8v2.5h2.4c0.4,0,0.6-0.1,0.8-0.3c0.2-0.2,0.3-0.5,0.3-1h0.2v3h-0.2c0-0.4-0.1-0.8-0.3-1
	c-0.2-0.2-0.4-0.3-0.8-0.3h-2.4v2.8c0,0.4,0,0.7,0.1,0.9c0.1,0.2,0.2,0.2,0.5,0.2h2.4c1,0,1.6-0.6,1.9-1.7l0.2,0.1l-0.6,2.2h-6.9
	v-0.3c0.8,0,1.2-0.3,1.2-1v-5.9c0-0.5-0.1-0.9-0.2-1.1c-0.2-0.2-0.4-0.3-0.9-0.3H119.8z"/>
<path class="st0" d="M139.4,65.8V66h-1.8l-3-4h-1v2.5c0,0.5,0.1,0.8,0.3,1c0.2,0.1,0.5,0.2,1,0.3V66h-3.7v-0.3c0.5,0,0.8-0.1,1-0.3
	c0.2-0.2,0.2-0.5,0.2-1v-5.9c0-0.5-0.1-0.8-0.2-1c-0.2-0.2-0.5-0.2-1-0.3v-0.3h3.7c1,0,1.7,0.1,2.1,0.3c0.7,0.3,1,0.9,1,1.9
	c0,1.3-0.7,2.1-2.1,2.4l2.5,3.3C138.7,65.4,139,65.6,139.4,65.8z M133.6,58.3v3.3h0.6c1.6,0,2.4-0.7,2.4-2c0-1.3-0.7-1.9-2.1-1.9
	c-0.4,0-0.6,0-0.7,0.1C133.7,57.8,133.6,58,133.6,58.3z"/>
<path class="st0" d="M148.4,57.1h2.8v0.3c-0.5,0-0.8,0.1-1,0.3c-0.1,0.2-0.2,0.5-0.2,0.9V66h-0.2l-5.4-7.1V64c0,0.8,0.1,1.2,0.2,1.4
	c0.1,0.2,0.5,0.4,1,0.4V66h-2.8v-0.3c0.5,0,0.8-0.2,1-0.4c0.1-0.2,0.1-0.7,0.1-1.4v-5.5c0-0.2-0.2-0.4-0.4-0.7
	c-0.2-0.3-0.5-0.4-0.8-0.4v-0.3h2l4.8,6.3v-4.8c0-0.5-0.1-0.8-0.3-1c-0.2-0.2-0.5-0.2-0.9-0.2V57.1z"/>
<path class="st0" d="M160.7,66v-0.3c0.5-0.1,0.8-0.2,0.9-0.3c0.2-0.2,0.2-0.6,0.2-1.3v-5.4c0-0.5-0.1-0.9-0.2-1.1
	c-0.1-0.2-0.5-0.3-1-0.3v-0.3h3.6v0.3c-0.5,0-0.9,0.1-1,0.3c-0.1,0.2-0.2,0.5-0.2,1.1v5.5c0,0.4,0,0.7,0.1,0.8
	c0.1,0.2,0.3,0.3,0.6,0.3h1.6c0.6,0,1.1-0.1,1.4-0.4c0.3-0.3,0.6-0.7,0.8-1.4l0.3,0.1l-0.7,2.3H160.7z"/>
<path class="st0" d="M171.4,57.4v-0.3h3.7v0.3c-0.5,0-0.8,0.1-0.9,0.2c-0.2,0.2-0.3,0.5-0.3,1v5.7c0,0.6,0.1,0.9,0.2,1.1
	c0.2,0.2,0.5,0.3,1,0.3V66h-3.7v-0.3c0.5,0,0.8-0.1,1-0.3s0.2-0.6,0.2-1.2v-5.6c0-0.5-0.1-0.9-0.3-1
	C172.2,57.5,171.8,57.4,171.4,57.4z"/>
<path class="st0" d="M185.7,59.6l-2.6,6.5h-0.2l-2.2-5.5c-0.2-0.5-0.4-0.9-0.5-1.4c-0.2-0.5-0.4-1-0.6-1.3c-0.2-0.4-0.5-0.6-0.9-0.6
	v-0.3h3.4v0.3c-0.6,0-1,0.2-1,0.5c0,0.1,0.2,0.7,0.7,1.9l1.6,4.2l2-5c0.2-0.5,0.3-0.9,0.3-1.2s-0.3-0.4-0.9-0.5v-0.3h2.4v0.3
	c-0.1,0-0.2,0.1-0.4,0.1c-0.2,0.1-0.4,0.4-0.6,0.9C186,58.8,185.9,59.2,185.7,59.6z"/>
<path class="st0" d="M190.7,57.4v-0.3h3.7v0.3c-0.5,0-0.8,0.1-0.9,0.2c-0.2,0.2-0.3,0.5-0.3,1v5.7c0,0.6,0.1,0.9,0.2,1.1
	c0.2,0.2,0.5,0.3,1,0.3V66h-3.7v-0.3c0.5,0,0.8-0.1,1-0.3s0.2-0.6,0.2-1.2v-5.6c0-0.5-0.1-0.9-0.3-1
	C191.5,57.5,191.2,57.4,190.7,57.4z"/>
<path class="st0" d="M203.5,57.1h2.8v0.3c-0.5,0-0.8,0.1-1,0.3c-0.1,0.2-0.2,0.5-0.2,0.9V66H205l-5.4-7.1V64c0,0.8,0.1,1.2,0.2,1.4
	c0.1,0.2,0.5,0.4,1,0.4V66h-2.8v-0.3c0.5,0,0.8-0.2,1-0.4c0.1-0.2,0.1-0.7,0.1-1.4v-5.5c0-0.2-0.2-0.4-0.4-0.7
	c-0.2-0.3-0.5-0.4-0.8-0.4v-0.3h2l4.8,6.3v-4.8c0-0.5-0.1-0.8-0.3-1c-0.2-0.2-0.5-0.2-0.9-0.2V57.1z"/>
<path class="st0" d="M217.6,59.7h-0.2c-0.5-1.6-1.4-2.3-2.8-2.3c-1,0-1.7,0.4-2.3,1.3c-0.5,0.7-0.7,1.7-0.7,2.8
	c0,1.3,0.3,2.4,0.8,3.1c0.5,0.8,1.3,1.2,2.2,1.2c0.4,0,0.8-0.1,1.1-0.2c0.4-0.1,0.7-0.3,0.9-0.5v-2.7c0-0.4-0.1-0.6-0.3-0.7
	c-0.2-0.1-0.4-0.1-0.8-0.1v-0.3h3.4v0.3c-0.3,0-0.5,0-0.7,0.1c-0.2,0.1-0.3,0.3-0.3,0.7v2.8c-0.2,0.3-0.6,0.5-1.3,0.7
	c-0.7,0.2-1.4,0.4-2,0.4c-1.2,0-2.2-0.4-3-1.1c-0.9-0.8-1.3-2-1.3-3.4c0-1.4,0.4-2.5,1.2-3.4c0.8-0.9,1.8-1.3,3-1.3
	c0.5,0,1,0.1,1.5,0.3c0.5,0.2,0.8,0.3,0.9,0.3c0.2,0,0.3-0.1,0.4-0.4h0.2L217.6,59.7z"/>
</svg>
