<?xml version="1.0" encoding="utf-8"?>
<!-- Generator: Adobe Illustrator 23.0.0, SVG Export Plug-In . SVG Version: 6.00 Build 0)  -->
<svg version="1.1" id="Layer_1" xmlns="http://www.w3.org/2000/svg" xmlns:xlink="http://www.w3.org/1999/xlink" x="0px" y="0px"
	 width="2000px" height="1125px" viewBox="0 0 2000 1125" style="enable-background:new 0 0 2000 1125;" xml:space="preserve">
<style type="text/css">
	.st0{display:none;}
	.st1{display:inline;fill:#2E7BFF;}
	.st2{fill:url(#SVGID_1_);}
	.st3{fill:url(#SVGID_2_);}
	.st4{fill:url(#SVGID_3_);}
	.st5{fill:url(#SVGID_4_);}
	.st6{fill:url(#SVGID_5_);}
	.st7{fill:url(#SVGID_6_);}
	.st8{fill:url(#SVGID_7_);}
	.st9{fill:url(#SVGID_8_);}
	.st10{fill:url(#SVGID_9_);}
	.st11{fill:url(#SVGID_10_);}
	.st12{fill:url(#SVGID_11_);}
	.st13{fill:url(#SVGID_12_);}
	.st14{fill:url(#SVGID_13_);}
	.st15{fill:url(#SVGID_14_);}
	.st16{fill:url(#SVGID_15_);}
	.st17{fill:url(#SVGID_16_);}
	.st18{fill:url(#SVGID_17_);}
	.st19{fill:url(#SVGID_18_);}
	.st20{fill:url(#SVGID_19_);}
</style>
<g class="st0">
	<rect x="-109.9" y="-35.1" class="st1" width="2221.4" height="1215.5"/>
</g>
<g>
	
		<linearGradient id="SVGID_1_" gradientUnits="userSpaceOnUse" x1="1209.2" y1="-651.995" x2="1209.2" y2="-239.4069" gradientTransform="matrix(1 0 0 1 0 976)">
		<stop  offset="0" style="stop-color:#FFFFFF"/>
		<stop  offset="0.3771" style="stop-color:#FFFFFF;stop-opacity:0"/>
	</linearGradient>
	<path class="st2" d="M1185.9,374.1c6,5.2,10.5,11.6,11.4,18.8c0.4,2.8,0.4,6.7,0.4,13.3V520c0,6.5,0,10.4-0.4,13.2
		c-0.9,7.2-5.4,13.6-11.4,18.8h46.6c-6.4-5.4-11-12.3-11.5-19.9c-0.3-2.7-0.3-6.4-0.3-12.1V406.1c0-5.6,0-9.4,0.3-12.1
		c0.6-7.6,5.1-14.5,11.5-19.9H1185.9z"/>
	
		<linearGradient id="SVGID_2_" gradientUnits="userSpaceOnUse" x1="502.5" y1="-651.995" x2="502.5" y2="-239.4069" gradientTransform="matrix(1 0 0 1 0 976)">
		<stop  offset="0" style="stop-color:#FFFFFF"/>
		<stop  offset="0.3771" style="stop-color:#FFFFFF;stop-opacity:0"/>
	</linearGradient>
	<path class="st3" d="M479.2,374.1c6.1,5.2,10.4,11.6,11.4,18.8c0.4,2.8,0.5,6.7,0.5,13.3V520c0,6.5-0.1,10.4-0.5,13.2
		c-0.9,7.2-5.3,13.6-11.4,18.8h46.6c-6.4-5.4-10.9-12.3-11.5-19.9c-0.3-2.7-0.4-6.4-0.4-12.1V406.1c0-5.6,0.1-9.4,0.4-12.1
		c0.6-7.6,5.1-14.5,11.5-19.9H479.2z"/>
	
		<linearGradient id="SVGID_3_" gradientUnits="userSpaceOnUse" x1="717.35" y1="-651.995" x2="717.35" y2="-239.4069" gradientTransform="matrix(1 0 0 1 0 976)">
		<stop  offset="0" style="stop-color:#FFFFFF"/>
		<stop  offset="0.3771" style="stop-color:#FFFFFF;stop-opacity:0"/>
	</linearGradient>
	<path class="st4" d="M634.7,462.5c0,68.1,56,93.4,91.3,93.4c17.7,0,34.3-7.3,46.4-12.5c6.3-2.8,12.3-5.4,15.2-5.4h3.8v-23.4v-10.3
		c0-7.4,4-13.6,8.6-19.2h-42.4c5.8,4.9,10.5,10.4,11.8,17c0,0.1,0,0.2,0,0.2c0.1,0.3,0.1,0.6,0.1,1c0.1,0.3,0.1,0.6,0.1,0.9v0.1
		c0.2,2.4,0.2,5.6,0.2,10.3v10.8l-1.5,1.1c-7.6,5.6-21.3,15.3-44.2,15.3c-37.9,0-64.5-33-64.5-80.4h0.1c0-0.3-0.1-0.7-0.1-1
		c0-0.2,0-0.4,0-0.5l0,0c0-43.5,28.5-75.1,67.6-75.1c11.4,0,19.3,2,24.9,5c2.4,1.4,4.7,3.1,6.8,5c6.5,6.3,11.7,15.4,13.8,26.1
		l0.5-1.4l13-40.9h-5.1c-4.7,0-11.3-1.5-18.9-3.2c-10.6-2.4-22.6-5.1-34.7-5.1C674.6,370.3,634.7,409.9,634.7,462.5"/>
	
		<linearGradient id="SVGID_4_" gradientUnits="userSpaceOnUse" x1="317.1" y1="-651.995" x2="317.1" y2="-239.4069" gradientTransform="matrix(1 0 0 1 0 976)">
		<stop  offset="0" style="stop-color:#FFFFFF"/>
		<stop  offset="0.3771" style="stop-color:#FFFFFF;stop-opacity:0"/>
	</linearGradient>
	<path class="st5" d="M300.9,374.1c-14.8,6.4-24.9,20.4-25.1,37c0.3,20.7,19.6,34.6,38.3,48c5.2,3.8,10.6,7.6,15.4,11.5
		C344.6,483,352,495.5,352,509v0.7v0.3c0,14.8-10.7,23.8-22.4,28c-5.4,1.9-11,2.8-15.9,2.8c-6.2,0-11.5-1-16.1-2.8
		c-4.9-1.9-9-4.5-12.6-7.5c-0.1-0.1-0.2-0.2-0.2-0.2c-0.1-0.1-0.2-0.2-0.3-0.3c-10.7-9-18.9-19.7-21.4-25v33.6l1.8,1.1
		c0.5,0.3,1.2,0.8,1.9,1.3c4,2.7,11.4,7.7,22.1,11.1c6.9,2.2,15.1,3.8,24.8,3.8c8.2,0,15.7-1.4,22.3-3.8c8.7-3.1,16-8.1,21.6-14.1
		c8.8-9.5,13.5-21.5,13.5-33.3c0-16.4-5.8-31-17.2-43.5c-8.2-9-18.4-15.9-28.2-22.6c-15.8-10.9-29.9-19.6-29.9-33.9l0,0
		c0-1.1,0.1-2.2,0.3-3.2c1.9-10.3,12.5-16.9,23.1-16.9c5.2,0,9.6,0.8,13.5,2.2c0.1,0,0.2,0.1,0.3,0.1h0.1
		c8.1,2.9,15.5,9.7,23.2,17.1v-25.4l-7.3-2.3c-2.4-0.7-4.9-1.5-7.4-2.2c-7.2-2.1-14.5-3.8-22-3.8
		C312.8,370.3,306.5,371.7,300.9,374.1"/>
	
		<linearGradient id="SVGID_5_" gradientUnits="userSpaceOnUse" x1="1671.7" y1="-651.995" x2="1671.7" y2="-239.4069" gradientTransform="matrix(1 0 0 1 0 976)">
		<stop  offset="0" style="stop-color:#FFFFFF"/>
		<stop  offset="0.3771" style="stop-color:#FFFFFF;stop-opacity:0"/>
	</linearGradient>
	<path class="st6" d="M1615.4,374.1c6.1,5.2,9.9,11.8,10.7,19.1c0.3,2.8,0.4,6.7,0.4,12.9V520c0,12.7,0,17.9-10.9,25.2l-10.5,6.9
		H1720l18.3-50.1l0,0c-7.9,9-16.4,16.8-24.5,23.1c-0.5,0.4-1,0.8-1.6,1.2c-0.4,0.3-0.9,0.6-1.3,0.9c-7.9,5.3-19.7,9.8-38.4,9.8
		c-22,0-23-5.7-23-23.8V406.1c0-6.1,0-9.9,0.4-12.6c0.7-7.4,5.2-14.1,11.4-19.4H1615.4z"/>
	
		<linearGradient id="SVGID_6_" gradientUnits="userSpaceOnUse" x1="980.85" y1="-651.995" x2="980.85" y2="-239.4069" gradientTransform="matrix(1 0 0 1 0 976)">
		<stop  offset="0" style="stop-color:#FFFFFF"/>
		<stop  offset="0.3771" style="stop-color:#FFFFFF;stop-opacity:0"/>
	</linearGradient>
	<path class="st7" d="M1036.9,374.1L1036.9,374.1c4.1,3.5,7.5,6.7,9.4,11.1c0.5,1.2,0.9,2.4,1.2,3.8c0.1,0.3,0.1,0.7,0.2,1.1
		c0.1,1,0.2,2.2,0.3,3.5c0.1,1.8,0.1,3.9,0.1,6.5v105l-115-130.9h-3.2H927h-41l7.6,3.4c16.4,7.4,24.6,14.7,30.9,23.3v2.3v2.5v120.6
		c0,2.7-0.1,5-0.2,6.8c-0.1,1.3-0.2,2.4-0.4,3.4c-0.3,1.7-0.7,3.2-1.3,4.6c-1.9,4.3-5.3,7.5-9.3,10.9l-0.1,0.1h38.9
		c-4.4-3.7-7.9-6.9-9.7-11.9c-0.4-1.1-0.7-2.2-0.9-3.5c-0.2-1.2-0.3-2.7-0.4-4.5c0-1.7-0.1-3.7-0.1-6v-88v-16.7V418l123.6,139.7
		V400.1c0-2.4,0-4.4,0.1-6c0.1-2.1,0.3-3.8,0.5-5.1c0.3-1.3,0.6-2.5,1.1-3.6c1.9-4.5,5.3-7.7,9.4-11.2L1036.9,374.1L1036.9,374.1z"
		/>
	<g>
		
			<linearGradient id="SVGID_7_" gradientUnits="userSpaceOnUse" x1="1424.55" y1="-651.995" x2="1424.55" y2="-239.4069" gradientTransform="matrix(1 0 0 1 0 976)">
			<stop  offset="0" style="stop-color:#FFFFFF"/>
			<stop  offset="0.3771" style="stop-color:#FFFFFF;stop-opacity:0"/>
		</linearGradient>
		<path class="st8" d="M1331.7,552.1c7.5-6.7,14.5-16.5,21-29.5l2.5-5V517l1.3-2.8l9.4-23.5l11-28.2c2.3-6.1,5.2-13.8,8.8-23.2
			c10.9-29,16.3-47,16.3-53.9c0-4.2-1.6-8.2-4.7-11.9c-0.2-0.4-0.7-1-1.6-1.9h30.9l40.7,96.2l19.4,42.9c9,20.1,19.2,33.8,30.7,41.4
			h-50.9c1.3-3.5,1.9-7,1.9-10.3c0-4.6-1.5-11.1-4.4-19.4c-0.4-1-0.9-2.6-1.6-4.7l-0.6-1.3l-0.9-2.2l-16.9-39.8h-55.8l-16,43.2
			c-0.2,1.3-0.7,3-1.6,5.3c-1.3,5-1.9,9.3-1.9,12.8c0,6.3,2.1,11.7,6.3,16.3h-43.3L1331.7,552.1L1331.7,552.1z M1392.2,461.5h46.4
			l-24.8-59.2L1392.2,461.5z"/>
	</g>
</g>
<linearGradient id="SVGID_8_" gradientUnits="userSpaceOnUse" x1="676.9999" y1="631.2353" x2="677" y2="678.0263">
	<stop  offset="0" style="stop-color:#FFFFFF"/>
	<stop  offset="0.3771" style="stop-color:#FFFFFF;stop-opacity:0"/>
</linearGradient>
<path class="st9" d="M651.1,632v-1.3h11.5l14.3,34.4l14.2-34.4h11.6v1.3c-2.2,0-3.7,0.4-4.6,1.3c-0.8,0.9-1.2,2.6-1.2,5.1v28.2
	c0,3,0.3,5,0.9,5.9c0.7,1.2,2.4,1.8,5.1,1.9v1.3h-17.4v-1.3c2.5,0,4-0.7,4.8-2.1c0.5-1,0.8-2.9,0.8-5.7v-28.9H691l-15.2,38.1h-1
	l-15.3-36.6v25.4c0,3.9,0.3,6.4,0.8,7.5c0.7,1.6,2.4,2.4,5.1,2.4v1.3h-14v-1.3c2.6-0.1,4.2-0.8,4.8-2.2c0.5-1,0.7-3.3,0.7-7v-24.8
	c0-3-0.2-5.1-0.6-6.1C655.4,632.8,653.7,632,651.1,632z"/>
<linearGradient id="SVGID_9_" gradientUnits="userSpaceOnUse" x1="743.45" y1="631.2353" x2="743.45" y2="678.0263">
	<stop  offset="0" style="stop-color:#FFFFFF"/>
	<stop  offset="0.9655" style="stop-color:#FFFFFF;stop-opacity:0"/>
</linearGradient>
<path class="st10" d="M743.5,629.7c6.1,0,11.1,2.2,15,6.7c3.9,4.4,5.9,10.2,5.9,17.3c0,6.8-2,12.4-6,16.7s-9,6.5-14.9,6.5
	c-6,0-11-2.2-15-6.5s-6-9.9-6-16.7c0-7.1,2-12.9,5.9-17.3C732.4,631.9,737.4,629.7,743.5,629.7z M743.5,674.4
	c4.9,0,8.5-2.3,10.9-6.8c2-3.8,3-8.8,3-15c0-5.9-1.1-10.6-3.3-14.3c-2.5-4.2-6-6.3-10.6-6.3s-8.2,2.1-10.7,6.3
	c-2.2,3.7-3.3,8.4-3.3,14.3c0,6.2,1,11.2,3,15C734.9,672.2,738.6,674.4,743.5,674.4z"/>
<linearGradient id="SVGID_10_" gradientUnits="userSpaceOnUse" x1="805.7501" y1="631.2353" x2="805.7501" y2="678.0263">
	<stop  offset="0" style="stop-color:#FFFFFF"/>
	<stop  offset="0.3771" style="stop-color:#FFFFFF;stop-opacity:0"/>
</linearGradient>
<path class="st11" d="M784.4,675.8v-1.3c4,0,6-1.7,6-5.1v-29.1c0-3.6-0.4-5.9-1.3-6.9c-0.8-1-2.4-1.4-4.8-1.4v-1.3h20
	c6.6,0,11.8,1.5,15.7,4.6c4.8,3.8,7.2,9.9,7.2,18.1c0,8-2.8,14-8.5,18c-4.2,3-9.1,4.4-14.8,4.4H784.4z M796.6,640.9v27.7
	c0,2,0.2,3.2,0.5,3.7c0.5,0.7,1.7,1,3.7,1c6.1,0,10.8-1.7,14.1-5c3.6-3.5,5.3-8.6,5.3-15.4c0-6.1-1.7-10.9-5.1-14.5
	c-3.4-3.6-7.8-5.4-13.2-5.4c-2.9,0-4.6,0.4-5.1,1.3C796.7,634.9,796.6,637.1,796.6,640.9z"/>
<linearGradient id="SVGID_11_" gradientUnits="userSpaceOnUse" x1="866.9" y1="631.2353" x2="866.9" y2="678.0263">
	<stop  offset="0" style="stop-color:#FFFFFF"/>
	<stop  offset="0.9554" style="stop-color:#FFFFFF;stop-opacity:0"/>
</linearGradient>
<path class="st12" d="M847.8,632v-1.3H882l0.5,9.9h-1.2c-0.3-2.7-1.1-4.5-2.3-5.6s-3.1-1.6-5.6-1.6h-10.9c-1.2,0-2,0.3-2.2,0.8
	s-0.4,1.8-0.4,3.8v12.7H872c1.9,0,3.3-0.5,4.1-1.5s1.3-2.6,1.5-5h1.1v15.4h-1.1c-0.2-2.3-0.7-3.9-1.5-4.9s-2.2-1.5-4.1-1.5h-12v14.2
	c0,2.2,0.2,3.7,0.5,4.3c0.3,0.8,1.2,1.2,2.4,1.2H875c4.9,0,8.2-2.9,9.9-8.8l1.1,0.5l-3.1,11h-35.1v-1.3c4,0,6-1.7,6-5.1V639
	c0-2.7-0.3-4.5-1-5.5c-0.8-1.1-2.3-1.7-4.5-1.7h-0.5L847.8,632L847.8,632z"/>
<linearGradient id="SVGID_12_" gradientUnits="userSpaceOnUse" x1="926.45" y1="631.2353" x2="926.4501" y2="678.0263">
	<stop  offset="0" style="stop-color:#FFFFFF"/>
	<stop  offset="0.3771" style="stop-color:#FFFFFF;stop-opacity:0"/>
</linearGradient>
<path class="st13" d="M947.4,674.5v1.3H938l-15-20.1h-5.2v12.5c0,2.5,0.5,4.1,1.4,5c0.8,0.7,2.4,1.2,4.9,1.3v1.3h-18.6v-1.3
	c2.4-0.1,4-0.6,4.9-1.4c0.8-0.8,1.3-2.4,1.3-4.9v-29.9c0-2.5-0.4-4.1-1.3-4.9c-0.8-0.8-2.5-1.2-4.9-1.4v-1.3h18.8
	c4.9,0,8.4,0.5,10.6,1.6c3.5,1.7,5.3,4.8,5.3,9.5c0,6.6-3.5,10.7-10.5,12.3l12.6,16.9C943.6,672.7,945.3,673.9,947.4,674.5z
	 M917.8,636.4V653h3.2c8.1,0,12.1-3.4,12.1-10.3c0-6.4-3.6-9.6-10.9-9.6c-2,0-3.2,0.2-3.7,0.5C918.1,634,917.8,634.9,917.8,636.4z"
	/>
<linearGradient id="SVGID_13_" gradientUnits="userSpaceOnUse" x1="985.85" y1="631.2353" x2="985.85" y2="678.0263">
	<stop  offset="0" style="stop-color:#FFFFFF"/>
	<stop  offset="0.9756" style="stop-color:#FFFFFF;stop-opacity:0"/>
</linearGradient>
<path class="st14" d="M992.9,630.7h14.4v1.3c-2.5,0-4.1,0.6-4.9,1.7c-0.6,0.9-0.9,2.5-0.9,4.8v37.3h-1l-27.2-36.1v25.7
	c0,3.8,0.3,6.3,0.9,7.3c0.7,1.2,2.3,1.8,4.9,1.8v1.3H965v-1.3c2.6-0.2,4.2-0.9,4.9-2.2c0.5-1,0.7-3.3,0.7-6.9v-27.8
	c-0.2-1.1-0.8-2.3-2-3.4c-1.3-1.3-2.7-2-4.2-2.1v-1.3h10.2l24.2,32.1v-24.6c0-2.5-0.4-4.1-1.3-5c-0.9-0.8-2.4-1.2-4.7-1.2
	L992.9,630.7L992.9,630.7z"/>
<linearGradient id="SVGID_14_" gradientUnits="userSpaceOnUse" x1="1073.4998" y1="631.2353" x2="1073.4999" y2="678.0263">
	<stop  offset="0" style="stop-color:#FFFFFF"/>
	<stop  offset="0.3771" style="stop-color:#FFFFFF;stop-opacity:0"/>
</linearGradient>
<path class="st15" d="M1055.2,675.8v-1.3c2.5-0.3,4-0.8,4.7-1.6c0.8-1,1.2-3.1,1.2-6.5v-27.2c0-2.7-0.3-4.5-0.9-5.4
	c-0.7-1-2.4-1.6-4.9-1.8v-1.3h18.1v1.3c-2.6,0.1-4.3,0.6-5,1.4c-0.7,0.9-1.1,2.8-1.1,5.8v28.1c0,2.1,0.2,3.6,0.5,4.3
	c0.5,1,1.5,1.6,3,1.6h8.2c3,0,5.4-0.7,7.1-2.2c1.6-1.4,3-3.7,4.3-6.9l1.4,0.3l-3.5,11.6h-33.1L1055.2,675.8L1055.2,675.8z"/>
<linearGradient id="SVGID_15_" gradientUnits="userSpaceOnUse" x1="1118.8499" y1="631.2353" x2="1118.85" y2="678.0263">
	<stop  offset="0" style="stop-color:#FFFFFF"/>
	<stop  offset="0.9856" style="stop-color:#FFFFFF;stop-opacity:0"/>
</linearGradient>
<path class="st16" d="M1109.6,632v-1.3h18.6v1.3c-2.3,0-3.9,0.4-4.8,1.2c-0.9,0.9-1.4,2.7-1.4,5.3v28.9c0,2.8,0.4,4.7,1.2,5.6
	c0.8,0.9,2.5,1.4,4.9,1.5v1.3h-18.6v-1.3c2.6-0.1,4.2-0.6,5-1.5s1.2-2.9,1.2-5.9v-28.6c0-2.6-0.4-4.3-1.3-5.2
	C1113.6,632.5,1112,632,1109.6,632z"/>
<linearGradient id="SVGID_16_" gradientUnits="userSpaceOnUse" x1="1168.2001" y1="631.2353" x2="1168.2001" y2="678.0263">
	<stop  offset="0" style="stop-color:#FFFFFF"/>
	<stop  offset="0.3771" style="stop-color:#FFFFFF;stop-opacity:0"/>
</linearGradient>
<path class="st17" d="M1182.3,643.2l-13.3,33.3h-0.9l-11.1-27.9c-0.9-2.3-1.8-4.6-2.7-6.9c-1.1-2.6-2.1-4.9-3.1-6.8
	c-1-1.9-2.6-2.9-4.7-2.9v-1.3h17.1v1.3c-3.2,0-4.8,0.8-4.8,2.5c0,0.6,1.1,3.7,3.4,9.5l8.3,21.4l10-25.2c1-2.6,1.6-4.6,1.6-6
	s-1.5-2.2-4.4-2.4v-1.3h12.2v1.3c-0.5,0.1-1.2,0.3-2.1,0.7c-0.9,0.5-2,2.1-3.1,4.8C1183.9,639.4,1183.1,641.3,1182.3,643.2z"/>
<linearGradient id="SVGID_17_" gradientUnits="userSpaceOnUse" x1="1216.9498" y1="631.2353" x2="1216.95" y2="678.0263">
	<stop  offset="0" style="stop-color:#FFFFFF"/>
	<stop  offset="0.9454" style="stop-color:#FFFFFF;stop-opacity:0"/>
</linearGradient>
<path class="st18" d="M1207.7,632v-1.3h18.6v1.3c-2.3,0-3.9,0.4-4.8,1.2c-0.9,0.9-1.4,2.7-1.4,5.3v28.9c0,2.8,0.4,4.7,1.2,5.6
	c0.8,0.9,2.5,1.4,4.9,1.5v1.3h-18.6v-1.3c2.6-0.1,4.2-0.6,5-1.5s1.2-2.9,1.2-5.9v-28.6c0-2.6-0.4-4.3-1.3-5.2
	C1211.7,632.5,1210.1,632,1207.7,632z"/>
<linearGradient id="SVGID_18_" gradientUnits="userSpaceOnUse" x1="1265.8501" y1="631.2353" x2="1265.8501" y2="678.0263">
	<stop  offset="0" style="stop-color:#FFFFFF"/>
	<stop  offset="0.3771" style="stop-color:#FFFFFF;stop-opacity:0"/>
</linearGradient>
<path class="st19" d="M1272.9,630.7h14.4v1.3c-2.5,0-4.1,0.6-4.9,1.7c-0.6,0.9-0.9,2.5-0.9,4.8v37.3h-1l-27.2-36.1v25.7
	c0,3.8,0.3,6.3,0.9,7.3c0.7,1.2,2.3,1.8,4.9,1.8v1.3H1245v-1.3c2.6-0.2,4.2-0.9,4.9-2.2c0.5-1,0.7-3.3,0.7-6.9v-27.8
	c-0.2-1.1-0.8-2.3-2-3.4c-1.3-1.3-2.7-2-4.2-2.1v-1.3h10.2l24.2,32.1v-24.6c0-2.5-0.4-4.1-1.3-5c-0.9-0.8-2.4-1.2-4.7-1.2
	L1272.9,630.7L1272.9,630.7z"/>
<linearGradient id="SVGID_19_" gradientUnits="userSpaceOnUse" x1="1328.65" y1="631.2353" x2="1328.65" y2="678.0263">
	<stop  offset="0" style="stop-color:#FFFFFF"/>
	<stop  offset="0.9504" style="stop-color:#FFFFFF;stop-opacity:0"/>
</linearGradient>
<path class="st20" d="M1344.5,643.9h-1.2c-2.3-7.9-7-11.8-14.2-11.8c-4.9,0-8.7,2.1-11.5,6.4c-2.5,3.8-3.7,8.5-3.7,14.2
	c0,6.7,1.4,12,4.2,15.9c2.8,3.9,6.5,5.8,11.1,5.8c2,0,3.9-0.3,5.7-0.8c2.2-0.6,3.7-1.5,4.4-2.7v-13.7c0-1.9-0.6-3.1-1.7-3.8
	c-0.8-0.4-2.3-0.7-4.3-0.7v-1.3h17.1v1.3c-1.6,0-2.8,0.2-3.5,0.7c-0.9,0.6-1.4,1.7-1.4,3.5v14.2c-1,1.3-3.1,2.6-6.4,3.8
	c-3.6,1.3-7,1.9-10.4,1.9c-6.1,0-11.2-1.9-15.2-5.8c-4.4-4.2-6.6-10-6.6-17.3c0-7,2.1-12.7,6.2-17.2s9.3-6.8,15.4-6.8
	c2.5,0,5.1,0.5,7.8,1.4c2.7,0.9,4.3,1.4,4.6,1.4c1,0,1.6-0.7,1.8-2.2h1L1344.5,643.9z"/>
</svg>
