<?xml version="1.0" encoding="utf-8"?>
<!-- Generator: Adobe Illustrator 21.1.0, SVG Export Plug-In . SVG Version: 6.00 Build 0)  -->
<svg version="1.1" id="Layer_1" xmlns="http://www.w3.org/2000/svg" xmlns:xlink="http://www.w3.org/1999/xlink" x="0px" y="0px"
	 width="30px" height="30px" viewBox="0 0 30 30" style="enable-background:new 0 0 30 30;" xml:space="preserve">
<style type="text/css">
	.st0{fill:#FFFFFF;}
</style>
<path class="st0" d="M2,10.3v9.2h7.4l6.1,6.3V4.1l-6.1,6.3L2,10.3L2,10.3z M10.7,11.6l3-3.1v12.8l-3-3.1l-0.5-0.5H9.4H3.8v-5.5h5.6
	h0.7L10.7,11.6z"/>
<path class="st0" d="M25.4,4l-1.2,0.9c2.1,2.8,3.3,6.3,3.3,10.1s-1.2,7.3-3.3,10.1l1.2,0.9c2.2-3.1,3.6-6.9,3.6-11S27.7,7.1,25.4,4z
	"/>
<path class="st0" d="M22,23.3c1.7-2.3,2.7-5.2,2.7-8.3s-1-6-2.7-8.3l-1.2,0.9c1.5,2.1,2.4,4.7,2.4,7.5s-0.9,5.4-2.4,7.5L22,23.3z"/>
<path class="st0" d="M18.5,20.7c1.2-1.6,1.9-3.6,1.9-5.7s-0.7-4.1-1.9-5.7l-1.2,0.9c1,1.4,1.6,3,1.6,4.8s-0.6,3.5-1.6,4.8L18.5,20.7
	z"/>
</svg>
